<svg width="40" height="40" viewBox="0 0 40 40" fill="none" xmlns="http://www.w3.org/2000/svg">
<g clip-path="url(#clip0)">
<path d="M33.173 3.44401C32.8759 3.26885 32.5166 3.23361 32.191 3.34752C28.8488 4.51721 25.517 5.67744 22.8474 6.60596C22.0059 5.68198 20.8731 5.02877 19.5963 4.78963C19.2644 2.85752 18.0431 1.18877 16.2446 0.289472L15.9147 0.12455C15.3361 -0.164825 14.632 0.0697846 14.3425 0.648613C14.053 1.22744 14.2877 1.93143 14.8666 2.2208L15.1965 2.38572C16.2062 2.89065 16.9238 3.78463 17.2082 4.83698C14.7325 5.40362 12.8505 7.54182 12.6719 10.1423C8.85383 11.4692 4.80102 12.8794 0.784766 14.2851C0.314687 14.4496 7.8125e-05 14.8932 7.8125e-05 15.3911H0V27.8911H0.00101562C0.00109375 28.3759 0.302891 28.8294 0.786484 28.9978L32.1927 39.9353C32.318 39.979 32.4483 40.0005 32.5781 40.0005C32.7182 40.0005 32.8577 39.9754 32.9897 39.9259C33.0214 39.9181 33.0612 39.9093 33.108 39.8984C33.7558 39.7486 35.4766 39.3507 37.0338 38.0706C39.002 36.4527 40 34.0792 40 31.0161V15.3911C40 15.0675 39.9224 7.42127 33.173 3.44401ZM18.5156 7.03174C20.4541 7.03174 22.0312 8.60885 22.0312 10.5474C22.0312 12.4859 20.4541 14.063 18.5156 14.063C16.5771 14.063 15 12.4859 15 10.5474C15 8.60885 16.5771 7.03174 18.5156 7.03174ZM12.9958 12.5109C13.8049 14.7788 15.9733 16.4067 18.5156 16.4067C21.7465 16.4067 24.375 13.7782 24.375 10.5474C24.375 9.88878 24.2641 9.25596 24.0629 8.66463C26.5092 7.81362 29.4546 6.78784 32.4361 5.74479C37.5953 9.12596 37.6562 15.3271 37.6562 15.3911C37.6562 20.8266 33.7401 24.0838 32.4148 25.0299L25.934 22.7616C25.5756 22.6362 25.1785 22.6921 24.8688 22.912C24.559 23.1317 24.375 23.4879 24.375 23.8677V28.6724C24.375 29.3186 23.8493 29.8443 23.2031 29.8443C22.557 29.8443 22.0312 29.3186 22.0312 28.6724V22.2271C22.0312 21.728 21.7152 21.2837 21.2438 21.12L4.73414 15.3875C7.53562 14.4096 10.32 13.441 12.9958 12.5109ZM19.6875 26.8297L2.34375 20.8075V17.0385L19.6875 23.0607V26.8297ZM2.34375 23.2886L19.7505 29.3326C20.0605 30.9565 21.4902 32.188 23.2031 32.188C24.0758 32.188 24.8746 31.8677 25.4898 31.3394L31.4062 33.4101V37.1797L2.34375 27.0584V23.2886ZM31.4062 30.9269L26.6672 29.2683C26.7005 29.0745 26.7188 28.8756 26.7188 28.6725V25.5196L31.4062 27.1602V30.9269ZM37.6562 31.0161C37.6562 34.2218 36.375 36.2761 33.75 37.2642V26.9582C34.6106 26.3505 36.2652 25.0219 37.6562 22.9638V31.0161Z" fill="black"/>
<path d="M32.1875 11.4844C32.8347 11.4844 33.3594 10.9598 33.3594 10.3126C33.3594 9.66535 32.8347 9.14069 32.1875 9.14069C31.5403 9.14069 31.0156 9.66535 31.0156 10.3126C31.0156 10.9598 31.5403 11.4844 32.1875 11.4844Z" fill="black"/>
<path d="M33.75 16.9532C34.3972 16.9532 34.9219 16.4285 34.9219 15.7813C34.9219 15.1341 34.3972 14.6094 33.75 14.6094C33.1028 14.6094 32.5781 15.1341 32.5781 15.7813C32.5781 16.4285 33.1028 16.9532 33.75 16.9532Z" fill="black"/>
<path d="M29.8438 21.6407C30.491 21.6407 31.0156 21.116 31.0156 20.4688C31.0156 19.8216 30.491 19.2969 29.8438 19.2969C29.1965 19.2969 28.6719 19.8216 28.6719 20.4688C28.6719 21.116 29.1965 21.6407 29.8438 21.6407Z" fill="black"/>
<path d="M27.5 16.1719C28.1472 16.1719 28.6719 15.6473 28.6719 15.0001C28.6719 14.3529 28.1472 13.8282 27.5 13.8282C26.8528 13.8282 26.3281 14.3529 26.3281 15.0001C26.3281 15.6473 26.8528 16.1719 27.5 16.1719Z" fill="black"/>
</g>
<defs>
<clipPath id="clip0">
<rect width="40" height="40" fill="white"/>
</clipPath>
</defs>
</svg>
