<svg width="20" height="20" viewBox="0 0 20 20" fill="none" xmlns="http://www.w3.org/2000/svg">
<g clip-path="url(#clip0)">
<path d="M18.7093 18.6499C17.9499 19.0253 17.1578 19.3304 16.3426 19.5613C15.5264 19.7926 14.6883 19.9372 13.8418 19.9924C13.4082 20.0181 12.9738 20.0192 12.5401 19.9955C12.1065 19.9717 11.6745 19.9236 11.2462 19.8512C9.71063 19.58 8.23332 19.0461 6.8792 18.2725C5.5243 17.5007 4.26563 16.5712 3.12921 15.5036C2.57077 14.9927 2.05245 14.4393 1.57923 13.8487C1.10523 13.2578 0.701273 12.6142 0.375254 11.9304C0.0311062 11.1998 -0.0798392 10.3808 0.057293 9.58485C0.189312 8.82776 0.506808 8.11513 0.981115 7.51051C1.11933 7.33294 1.26964 7.16528 1.43125 7.00878C1.58961 6.85522 1.75913 6.71328 1.9381 6.58452C1.55134 5.85252 1.27366 5.068 1.11375 4.25574C1.02977 3.7788 1.0338 3.29055 1.12569 2.81516C1.2388 2.25516 1.47433 1.72724 1.81553 1.26904C2.19284 0.79737 2.67117 0.416343 3.21521 0.154165C3.29501 0.114187 3.37961 0.0845912 3.46701 0.0663069C3.55393 0.0478676 3.64319 0.0427542 3.73166 0.0508117C3.94131 0.0633628 4.14539 0.123949 4.32792 0.227767C4.47264 0.318569 4.5684 0.469957 4.5887 0.639474C4.61411 0.807752 4.57894 0.979439 4.48938 1.12401C4.40013 1.27044 4.26935 1.38696 4.11362 1.45886C3.90862 1.55431 3.71291 1.66898 3.5293 1.8013C3.35451 1.92759 3.19476 2.07371 3.05344 2.23672C2.9005 2.46248 2.79978 2.71939 2.75872 2.98886C2.71704 3.25832 2.71084 3.53196 2.74013 3.80297C2.7564 3.97776 2.78196 4.15131 2.81683 4.3233C2.85123 4.49576 2.89338 4.66699 2.93986 4.83573C2.96574 4.93211 2.99316 5.02771 3.02199 5.12316C3.05081 5.21877 3.08102 5.31422 3.11201 5.4106C3.12053 5.43121 3.15757 5.55688 3.19677 5.67743C3.21536 5.7611 3.24852 5.84075 3.29439 5.91327C3.70331 5.72438 4.13795 5.59716 4.58405 5.5358C5.03031 5.47646 5.48401 5.50884 5.91741 5.63094C5.98296 5.64985 6.05083 5.66875 6.12009 5.68905C6.18951 5.70919 6.26001 5.73073 6.33051 5.7549C6.39776 5.77551 6.46486 5.79876 6.52885 5.82494C6.59114 5.84989 6.65142 5.87949 6.70922 5.91327C8.15476 6.80346 9.3341 8.06663 10.1231 9.56982C11.0097 11.1784 11.6144 12.9267 11.9106 14.7393C12.668 15.0147 13.3946 15.3681 14.0789 15.7941C14.6723 16.1537 15.1651 16.6578 15.5113 17.2592C16.1199 17.1983 16.7318 17.1769 17.3431 17.195C17.8437 17.2014 18.3391 17.2977 18.8057 17.4795C19.0982 17.6499 19.2823 17.8289 19.2893 18.0221C19.2961 18.2152 19.1258 18.4227 18.7093 18.6499Z" fill="#C03A2B"/>
<path d="M6.32947 16.5505C6.25788 16.5505 6.188 16.528 6.12974 16.4865C5.49785 16.035 4.89167 15.5484 4.31401 15.0293C3.80546 14.5721 3.3953 14.1571 3.08819 13.8265C3.00219 13.7367 2.9712 13.6078 3.00715 13.4888C3.0431 13.37 3.14025 13.2796 3.26158 13.2525C3.38275 13.2252 3.50919 13.2657 3.5924 13.3579C3.88883 13.6768 4.28473 14.0773 4.77577 14.5186C5.33375 15.02 5.91931 15.49 6.52982 15.926C6.65177 16.013 6.70337 16.1689 6.65766 16.3114C6.61195 16.454 6.47916 16.5507 6.32947 16.5505Z" fill="#802F34"/>
<path d="M10.6307 18.5882C10.6168 18.5882 10.6028 18.5874 10.589 18.5857C10.5749 18.584 10.5608 18.5815 10.5472 18.578C10.1296 18.4735 9.71821 18.3459 9.31486 18.1957C8.89727 18.0403 8.48804 17.8635 8.08857 17.6658C7.97669 17.6123 7.90216 17.5028 7.89364 17.379C7.88512 17.2553 7.94369 17.1365 8.0472 17.068C8.15071 16.9997 8.28304 16.9922 8.39352 17.0486C8.77083 17.2353 9.15743 17.4025 9.55194 17.5493C9.9322 17.691 10.32 17.8114 10.7136 17.91C10.8821 17.9523 10.9927 18.1133 10.9716 18.2857C10.9505 18.4581 10.8044 18.5877 10.6307 18.5882Z" fill="#802F34"/>
<path d="M19.9998 2.88399C19.3759 3.45158 18.8675 4.1343 18.5025 4.89465C18.153 5.64616 17.9632 6.46168 17.9448 7.2902C17.9293 7.96145 17.9422 8.65843 17.9064 9.34951C17.8853 10.0355 17.7743 10.7157 17.5765 11.3727C17.2923 12.1918 16.7314 12.886 15.9904 13.3358C15.2575 13.8008 14.4187 14.0729 13.5524 14.1267C13.3932 14.0193 13.2536 13.8856 13.1396 13.7312C13.0108 13.5878 12.907 13.4235 12.8329 13.2455L12.9327 13.2385L13.0325 13.2317C13.4608 13.0925 13.8378 12.8286 14.1152 12.474C14.4499 11.9983 14.6911 11.4634 14.8259 10.8978C14.4968 11.0219 14.1587 11.1519 13.8142 11.2563C13.4733 11.3651 13.121 11.4342 12.7641 11.4621C12.6887 11.4668 12.6129 11.4682 12.5374 11.4657C12.4618 11.4632 12.3864 11.4569 12.3115 11.4463C12.3056 11.4457 12.2999 11.4445 12.2943 11.4429C12.2839 11.4404 12.2751 11.4335 12.2701 11.4239C12.2678 11.4195 12.2658 11.415 12.2639 11.4105C12.2438 11.3616 12.2282 11.3112 12.2127 11.2607C12.1973 11.2102 12.1823 11.1597 12.1634 11.1104C12.1417 11.0532 12.1195 10.996 12.0971 10.9392C12.0744 10.8823 12.0517 10.8254 12.0286 10.7689C11.983 10.6571 11.9359 10.5462 11.8876 10.4359C11.8392 10.3254 11.79 10.2154 11.7397 10.1058C11.7371 10.0999 11.7343 10.0939 11.732 10.0879C11.7297 10.0818 11.728 10.0755 11.727 10.0691C11.7275 10.0284 11.7405 9.98869 11.7642 9.95568C11.7864 9.91973 11.8106 9.88518 11.8364 9.85202C11.8615 9.81855 11.8888 9.7871 11.9184 9.75765C11.948 9.72837 11.9798 9.70125 12.0134 9.67661C12.1123 9.6058 12.2246 9.55653 12.3436 9.53142C12.4624 9.50586 12.585 9.50105 12.7056 9.51732C14.196 9.71706 15.1797 9.53886 15.7834 9.07509C16.3871 8.61117 16.6108 7.86166 16.5815 6.91832H16.5811C16.4108 7.10008 16.2271 7.26866 16.0316 7.42284C15.8362 7.57764 15.6159 7.69804 15.3802 7.77892C15.1434 7.85376 14.8918 7.86755 14.6482 7.81936C14.4057 7.76962 14.1671 7.70191 13.9345 7.61715C13.7296 7.55006 13.5239 7.4873 13.317 7.43167C13.11 7.3762 12.9017 7.32801 12.6918 7.2902C12.4222 7.24449 12.149 7.22342 11.8755 7.22683C11.6031 7.22822 11.3302 7.24713 11.0566 7.26944C10.9551 7.27641 10.8509 7.27905 10.7464 7.27812C10.6418 7.27719 10.5369 7.273 10.4335 7.26603C10.3597 7.2603 10.2865 7.24991 10.2141 7.23504C10.1411 7.22094 10.0686 7.20451 9.99639 7.19072C9.98972 7.18948 9.98306 7.18824 9.97655 7.18638C9.96989 7.18483 9.96354 7.18251 9.95734 7.17957C9.93363 7.16485 9.91349 7.14486 9.89892 7.121C9.88157 7.09636 9.86576 7.06986 9.85073 7.05096C9.82857 7.02338 9.80626 6.99595 9.78364 6.96883C9.76101 6.94156 9.73839 6.9146 9.71546 6.88764C9.6479 6.80846 9.57864 6.73067 9.50767 6.65444C9.43685 6.5782 9.36449 6.5032 9.29089 6.4296C9.27028 6.40543 9.24781 6.38141 9.22411 6.35677C9.2004 6.33229 9.17561 6.30734 9.14973 6.28162C9.16352 6.01743 9.26377 5.76532 9.435 5.56388C9.61365 5.31085 9.85027 5.04573 10.0689 4.77379C9.74071 4.67074 9.39021 4.66238 9.05753 4.74977C8.77645 4.82724 8.51923 4.97383 8.30943 5.1762C8.25116 5.23275 8.17555 5.26777 8.09482 5.27583C8.01424 5.28342 7.93351 5.2625 7.86673 5.21695C7.77577 5.15528 7.68342 5.09531 7.58967 5.03705C7.49593 4.97863 7.40079 4.92192 7.30441 4.86676C7.24987 4.83499 7.19455 4.80602 7.13923 4.77936C7.08391 4.75256 7.02797 4.72792 6.9725 4.7053C6.88681 4.67043 6.81801 4.60349 6.78129 4.51858C6.74441 4.43382 6.74286 4.33791 6.7768 4.25191C7.26288 3.03848 8.31965 2.14534 9.59723 1.86844C10.9673 1.51794 12.7228 1.66019 14.7295 2.4399C13.1346 3.51868 13.1335 4.64796 13.765 5.19061C14.3966 5.7334 15.6605 5.68986 16.5953 4.42266C16.989 3.81185 17.5766 3.35086 18.2637 3.1141C18.8337 2.98254 19.4151 2.90553 19.9998 2.88399Z" fill="#F29C1F"/>
<path d="M6.25887 8.97386C5.59877 8.9328 4.96812 8.68612 4.45539 8.26821C4.09295 7.96993 3.89926 7.69133 3.66265 7.67909C3.12574 8.76173 2.44845 9.84097 1.90875 10.0887C1.36921 10.3367 0.967267 9.75312 0.981057 7.5105V7.50694C1.12005 7.33029 1.27082 7.16325 1.43243 7.00706C1.59064 6.85412 1.75953 6.71296 1.93804 6.58451C1.55128 5.85252 1.27361 5.06799 1.1137 4.25574C1.02971 3.7788 1.03374 3.29054 1.12563 2.81515C1.23874 2.25516 1.47427 1.72723 1.81547 1.26904C2.19278 0.797369 2.67112 0.416343 3.21515 0.154165C3.29495 0.114187 3.37956 0.0845911 3.46695 0.0663069C3.55388 0.0478676 3.64313 0.0427542 3.73161 0.0508117C3.94126 0.0633628 4.14533 0.123949 4.32786 0.227767C4.47258 0.318568 4.56835 0.469956 4.58864 0.639473C4.61406 0.807751 4.57888 0.979437 4.48932 1.12401C4.40007 1.27044 4.26929 1.38696 4.11356 1.45886C3.90856 1.55431 3.71286 1.66897 3.52924 1.8013C3.35445 1.92759 3.1947 2.07371 3.05338 2.23672C2.90044 2.46248 2.79973 2.71939 2.75866 2.98885C2.71698 3.25831 2.71078 3.53196 2.74007 3.80297C2.75634 3.97775 2.78191 4.1513 2.81677 4.3233C2.85117 4.49576 2.89332 4.66698 2.9398 4.83572C2.96568 4.9321 2.99311 5.02771 3.02193 5.12316C3.05075 5.21876 3.08096 5.31421 3.11195 5.41059C3.12048 5.4312 3.15751 5.55687 3.19671 5.67742C3.21531 5.76109 3.24847 5.84074 3.29433 5.91326C3.70325 5.72437 4.13789 5.59715 4.584 5.53579C5.03026 5.47645 5.48395 5.50883 5.91736 5.63093C5.9829 5.64984 6.04999 5.66874 6.11833 5.68904C6.18682 5.70919 6.25654 5.73072 6.32705 5.7549C6.06688 6.1305 5.94881 6.58637 5.99359 7.041C6.06456 7.54893 6.26677 8.02974 6.58008 8.43572C6.65942 8.5448 6.66484 8.69108 6.59387 8.8059C6.52461 8.92257 6.39368 8.98812 6.25887 8.97386Z" fill="#24AE5F"/>
<path d="M18.8571 17.5105C18.0859 17.8379 17.2577 18.0098 16.4199 18.0161C14.7103 18.0364 13.0086 17.7809 11.3804 17.2592C8.89497 16.5277 7.09211 14.6163 5.84072 12.6594C4.88838 11.1389 4.13873 9.50059 3.61096 7.7859C3.61964 7.76699 3.62816 7.74886 3.63684 7.7312C3.64536 7.71353 3.65404 7.69633 3.66256 7.67913C3.89328 7.69122 4.08341 7.95712 4.42942 8.24672C4.91147 8.65022 5.50478 8.89768 6.13079 8.95625C6.1514 8.95966 6.172 8.96322 6.19308 8.96616C6.21415 8.96911 6.23569 8.97174 6.25816 8.97345C6.39312 8.98894 6.52467 8.92386 6.59409 8.80687C6.66491 8.69221 6.65995 8.54624 6.5817 8.43654C6.26761 8.03057 6.06478 7.54975 5.9935 7.04151C5.94872 6.58657 6.06679 6.1307 6.32696 5.75494H6.33037C6.39761 5.77555 6.46471 5.7988 6.5287 5.82498C6.59099 5.84993 6.65127 5.87953 6.70907 5.9133C7.80287 6.56612 8.73971 7.45167 9.45311 8.50704C10.2376 9.64532 10.8531 10.8911 11.2805 12.2059C11.4182 12.6207 11.5405 13.0414 11.6458 13.4649C11.7514 13.8884 11.8398 14.3143 11.9105 14.7394C12.6679 15.0147 13.3945 15.3682 14.0787 15.7941C14.6722 16.1538 15.1649 16.6578 15.5111 17.2592C16.1198 17.1983 16.7317 17.1769 17.3429 17.195C17.8436 17.2014 18.339 17.2978 18.8055 17.4795L18.8313 17.495L18.8571 17.5105Z" fill="#E64C3C"/>
</g>
<defs>
<clipPath id="clip0">
<rect width="20" height="20" fill="white"/>
</clipPath>
</defs>
</svg>
