<svg width="20" height="20" viewBox="0 0 20 20" fill="none" xmlns="http://www.w3.org/2000/svg">
<g clip-path="url(#clip0)">
<path d="M11.2462 19.8512C9.71063 19.58 8.23332 19.0461 6.8792 18.2725M11.2462 19.8512C11.6745 19.9236 12.1065 19.9717 12.5401 19.9955C12.9738 20.0192 13.4082 20.0181 13.8418 19.9924M11.2462 19.8512L11.3295 19.3582C11.3301 19.3583 11.3307 19.3584 11.3313 19.3585M11.2462 19.8512L11.3332 19.3588C11.3325 19.3587 11.3319 19.3586 11.3313 19.3585M6.8792 18.2725L3.02199 5.12316M6.8792 18.2725C5.5243 17.5007 4.26563 16.5712 3.12921 15.5036C2.57077 14.9927 2.05245 14.4393 1.57923 13.8487C1.10523 13.2578 0.701273 12.6142 0.375254 11.9304M6.8792 18.2725L1.43125 7.00878M13.8418 19.9924C14.6883 19.9372 15.5264 19.7926 16.3426 19.5613C17.1578 19.3304 17.9499 19.0253 18.7093 18.6499L18.4877 18.2016C18.4846 18.2032 18.4815 18.2047 18.4784 18.2062M13.8418 19.9924L13.8093 19.4934C13.8098 19.4934 13.8103 19.4933 13.8108 19.4933M13.8418 19.9924L13.8122 19.4932C13.8117 19.4933 13.8113 19.4933 13.8108 19.4933M18.4784 18.2062C18.6044 18.1369 18.6863 18.0791 18.7375 18.0355C18.7019 18.0061 18.6527 17.9711 18.5869 17.9311C18.1871 17.7803 17.7641 17.7004 17.3367 17.695L17.3283 17.6949L17.3283 17.6948C16.7385 17.6773 16.1482 17.6979 15.561 17.7567L15.2392 17.7889L15.0779 17.5086C14.7738 16.9803 14.341 16.5376 13.8197 16.2217L13.8146 16.2186L13.8146 16.2186C13.1598 15.8109 12.4646 15.4727 11.7398 15.2092L11.4644 15.1091L11.4172 14.82C11.1301 13.0637 10.5443 11.3698 9.68523 9.81118L9.6803 9.80225L9.6804 9.8022C8.93409 8.38037 7.81906 7.18527 6.45241 6.34233C6.41691 6.32186 6.38032 6.30407 6.34296 6.2891L6.33949 6.28771L6.33949 6.2877C6.29243 6.26844 6.24007 6.25014 6.18401 6.23296L6.17614 6.23055L6.16835 6.22788C6.1081 6.20722 6.04586 6.18813 5.98075 6.16924L5.97947 6.16887C5.93861 6.15689 5.90186 6.14645 5.8637 6.1356C5.83724 6.12808 5.8101 6.12037 5.78043 6.11182C5.41326 6.00858 5.029 5.98118 4.65103 6.0313C4.25432 6.08598 3.86777 6.19918 3.50406 6.36718L3.10613 6.55099L2.87182 6.18053C2.8004 6.06761 2.74695 5.94331 2.71474 5.81183C2.69724 5.75751 2.68062 5.70392 2.6675 5.66165L2.66535 5.65472L2.64698 5.59597L2.64471 5.58898L2.64222 5.58295L2.63601 5.56365C2.60463 5.46605 2.57336 5.36731 2.54326 5.26748M18.4784 18.2062C17.7492 18.566 16.9888 18.8586 16.2063 19.0802L16.2062 19.0802C15.4244 19.3018 14.6216 19.4404 13.8108 19.4933M18.4784 18.2062L0.827101 11.7163M2.54326 5.26748L3.02199 5.12316M2.54326 5.26748C2.54329 5.26755 2.54331 5.26762 2.54333 5.26769L3.02199 5.12316M2.54326 5.26748C2.51329 5.16819 2.48459 5.06819 2.45738 4.96694C2.40874 4.79025 2.36376 4.60787 2.32664 4.42187M3.02199 5.12316C2.99316 5.02771 2.96574 4.93211 2.93986 4.83573C2.89338 4.66699 2.85123 4.49576 2.81683 4.3233M2.32664 4.42187C2.32669 4.42212 2.32674 4.42238 2.3268 4.42263L2.81683 4.3233M2.32664 4.42187C2.32659 4.42162 2.32654 4.42136 2.32649 4.42111L2.81683 4.3233M2.32664 4.42187C2.28854 4.23376 2.26053 4.044 2.24262 3.85296M2.81683 4.3233C2.78196 4.15131 2.7564 3.97776 2.74013 3.80297M2.74013 3.80297L2.24302 3.85669C2.24289 3.85545 2.24275 3.85421 2.24262 3.85296M2.74013 3.80297C2.71084 3.53196 2.71704 3.25832 2.75872 2.98886M2.74013 3.80297L2.24228 3.84932C2.24239 3.85053 2.24251 3.85175 2.24262 3.85296M2.24262 3.85296C2.20914 3.54011 2.21642 3.22417 2.26451 2.91298M2.75872 2.98886L2.26443 2.91353C2.26446 2.91335 2.26448 2.91316 2.26451 2.91298M2.75872 2.98886C2.79978 2.71939 2.9005 2.46248 3.05344 2.23672C3.19476 2.07371 3.35451 1.92759 3.5293 1.8013C3.71291 1.66898 3.90862 1.55431 4.11362 1.45886C4.26935 1.38696 4.40013 1.27044 4.48938 1.12401C4.57894 0.979439 4.61411 0.807752 4.5887 0.639474C4.5684 0.469957 4.47264 0.318569 4.32792 0.227767M2.75872 2.98886L2.2646 2.91242C2.26457 2.91261 2.26454 2.91279 2.26451 2.91298M2.26451 2.91298C2.31685 2.57011 2.44503 2.24335 2.63948 1.9563L2.65616 1.93167L2.67564 1.9092C2.84225 1.71702 3.03053 1.54482 3.23647 1.39602L3.23696 1.39567C3.44614 1.24492 3.66906 1.11431 3.90257 1.00559L3.90403 1.0049L3.90403 1.00491C3.96975 0.974564 4.02485 0.925446 4.06244 0.863778L4.06432 0.860684L4.06433 0.86069C4.09133 0.817116 4.10203 0.765248 4.09431 0.714134L4.09316 0.706544L4.09225 0.698922C4.09014 0.681313 4.08109 0.665568 4.06747 0.654999M4.06747 0.654999C4.0719 0.657422 4.07632 0.659885 4.08072 0.662387L4.32792 0.227767M4.06747 0.654999C3.95486 0.593522 3.82992 0.557589 3.70178 0.549918L3.69404 0.549455L3.68632 0.548751C3.64707 0.545177 3.60809 0.547505 3.57076 0.555424L3.5694 0.555712L3.5694 0.55571C3.52456 0.565091 3.48079 0.580352 3.43916 0.601205L3.4323 0.604642L3.43228 0.604589C2.95826 0.833022 2.54115 1.16446 2.2114 1.57461M4.06747 0.654999C4.06577 0.653686 4.06401 0.652453 4.06219 0.651307L4.32792 0.227767M4.32792 0.227767C4.14539 0.123949 3.94131 0.0633628 3.73166 0.0508117C3.64319 0.0427542 3.55393 0.0478676 3.46701 0.0663069C3.37961 0.0845912 3.29501 0.114187 3.21521 0.154165C2.67117 0.416343 2.19284 0.79737 1.81553 1.26904M3.12269 5.442C3.11773 5.42651 3.11405 5.41554 3.11201 5.4106L3.12269 5.442ZM3.12269 5.442C3.11001 5.44773 3.09735 5.45352 3.08472 5.45935L3.18651 5.67971L3.12269 5.442ZM3.21205 5.73501L3.18693 5.68063L3.21205 5.73501ZM3.21205 5.73501C3.23145 5.7977 3.25917 5.85758 3.29439 5.91327M3.21205 5.73501L3.29439 5.91327M3.29439 5.91327C3.70331 5.72438 4.13795 5.59716 4.58405 5.5358C5.03031 5.47646 5.48401 5.50884 5.91741 5.63094C5.94353 5.63847 5.97001 5.64601 5.99681 5.65363C6.03726 5.66513 6.07842 5.67684 6.12009 5.68905M3.29439 5.91327L6.12009 5.68905M6.12009 5.68905C6.18951 5.70919 6.26001 5.73073 6.33051 5.7549M6.12009 5.68905L6.33051 5.7549M6.33051 5.7549C6.39776 5.77551 6.46486 5.79876 6.52885 5.82494M6.33051 5.7549L6.52885 5.82494M6.52885 5.82494C6.59114 5.84989 6.65142 5.87949 6.70922 5.91327C8.15476 6.80346 9.3341 8.06663 10.1231 9.56982M6.52885 5.82494L10.1231 9.56982M10.1231 9.56982C11.0097 11.1784 11.6144 12.9267 11.9106 14.7393M10.1231 9.56982L11.9106 14.7393M11.9106 14.7393C12.668 15.0147 13.3946 15.3681 14.0789 15.7941M11.9106 14.7393L14.0789 15.7941M14.0789 15.7941C14.6723 16.1537 15.1651 16.6578 15.5113 17.2592L14.0789 15.7941ZM0.981115 7.51051C1.11933 7.33294 1.26964 7.16528 1.43125 7.00878M0.981115 7.51051C0.506808 8.11513 0.189312 8.82776 0.057293 9.58485M0.981115 7.51051L0.981123 7.51052L0.981115 7.51051ZM1.43125 7.00878C1.58961 6.85522 1.75913 6.71328 1.9381 6.58452C1.55134 5.85252 1.27366 5.068 1.11375 4.25574M1.43125 7.00878L0.827101 11.7163M0.057293 9.58485C-0.0798392 10.3808 0.0311062 11.1998 0.375254 11.9304M0.057293 9.58485L0.54986 9.67074C0.549892 9.67056 0.549923 9.67038 0.549954 9.67021M0.057293 9.58485L0.550034 9.66974C0.550008 9.6699 0.549981 9.67005 0.549954 9.67021M0.375254 11.9304L0.827583 11.7173C0.827422 11.717 0.827262 11.7166 0.827101 11.7163M0.375254 11.9304L0.826582 11.7152C0.826755 11.7155 0.826928 11.7159 0.827101 11.7163M0.827101 11.7163C0.527148 11.0789 0.430418 10.3646 0.549954 9.67021M0.827101 11.7163C1.13643 12.3649 1.51964 12.9754 1.96923 13.5358L1.96944 13.536C2.42655 14.1066 2.92723 14.6411 3.4667 15.1346L3.47159 15.1391L3.47156 15.1391C4.57926 16.1798 5.80609 17.0858 7.12669 17.8381L7.1272 17.8384C8.43082 18.5831 9.85298 19.0972 11.3313 19.3585M0.549954 9.67021C0.667844 8.99466 0.9512 8.35873 1.37451 7.81912L1.37452 7.81912L1.37568 7.81762C1.49967 7.65833 1.63438 7.50809 1.77908 7.36797L1.77932 7.36773C1.92022 7.2311 2.07101 7.10485 2.23011 6.99038L2.58365 6.73602L2.38018 6.35093C2.01698 5.66353 1.75599 4.92688 1.60533 4.16418M1.60533 4.16418C1.53292 3.74956 1.5366 3.32527 1.6162 2.9121M1.60533 4.16418C1.60561 4.1658 1.60589 4.16742 1.60618 4.16903L1.11375 4.25574M1.60533 4.16418C1.605 4.16251 1.60467 4.16084 1.60434 4.15916L1.11375 4.25574M1.6162 2.9121C1.7143 2.42797 1.91746 1.97146 2.2114 1.57461M1.6162 2.9121C1.61606 2.91278 1.61593 2.91347 1.61579 2.91415L1.12569 2.81516M1.6162 2.9121C1.61633 2.91141 1.61647 2.91073 1.6166 2.91004L1.12569 2.81516M2.2114 1.57461C2.20959 1.57686 2.20778 1.57912 2.20598 1.58138L1.81553 1.26904M2.2114 1.57461C2.21312 1.5723 2.21483 1.56999 2.21655 1.56768L1.81553 1.26904M1.81553 1.26904C1.47433 1.72724 1.2388 2.25516 1.12569 2.81516M1.12569 2.81516C1.0338 3.29055 1.02977 3.7788 1.11375 4.25574M11.3313 19.3585C11.7405 19.4276 12.1532 19.4736 12.5673 19.4962C12.9816 19.5188 13.3966 19.5178 13.8108 19.4933M2.64275 5.58293L2.64279 5.58305C2.64208 5.58106 2.64203 5.5808 2.64275 5.58293Z" stroke="black"/>
<path d="M6.32947 16.5505C6.25788 16.5505 6.188 16.528 6.12974 16.4865C5.49785 16.035 4.89167 15.5484 4.31401 15.0293C3.80546 14.5721 3.3953 14.1571 3.08819 13.8265C3.00219 13.7367 2.9712 13.6078 3.00715 13.4888C3.0431 13.37 3.14025 13.2796 3.26158 13.2525C3.38275 13.2252 3.50919 13.2657 3.5924 13.3579C3.88883 13.6768 4.28473 14.0773 4.77577 14.5186C5.33375 15.02 5.91931 15.49 6.52982 15.926C6.65177 16.013 6.70337 16.1689 6.65766 16.3114C6.61195 16.454 6.47916 16.5507 6.32947 16.5505Z" fill="black"/>
<path d="M10.6307 18.5882C10.6168 18.5882 10.6028 18.5874 10.589 18.5857C10.5749 18.584 10.5608 18.5815 10.5472 18.578C10.1296 18.4735 9.71821 18.3459 9.31486 18.1957C8.89727 18.0403 8.48804 17.8635 8.08857 17.6658C7.97669 17.6123 7.90216 17.5028 7.89364 17.379C7.88512 17.2553 7.94369 17.1365 8.0472 17.068C8.15071 16.9997 8.28304 16.9922 8.39352 17.0486C8.77083 17.2353 9.15743 17.4025 9.55194 17.5493C9.9322 17.691 10.32 17.8114 10.7136 17.91C10.8821 17.9523 10.9927 18.1133 10.9716 18.2857C10.9505 18.4581 10.8044 18.5877 10.6307 18.5882Z" fill="black"/>
<path d="M1.48084 7.68547C1.48483 8.69252 1.58112 9.26108 1.69831 9.53975C1.71202 9.57235 1.72444 9.59717 1.73496 9.61583C1.79083 9.58264 1.87171 9.51985 1.97542 9.41251C2.09884 9.28478 2.23407 9.11557 2.37652 8.91113C2.6614 8.50232 2.95263 7.98541 3.21471 7.45694L3.36059 7.16279L3.68848 7.17975C3.99402 7.19556 4.21639 7.3804 4.34208 7.49097C4.3955 7.53796 4.45316 7.59236 4.50669 7.64286C4.52285 7.65811 4.53864 7.67301 4.55382 7.68724C4.62358 7.75262 4.69426 7.8172 4.77218 7.88138C5.12108 8.1655 5.53476 8.35551 5.97395 8.43614C5.72668 8.0327 5.56424 7.58143 5.4984 7.11018L5.497 7.10012L5.496 7.09001C5.46183 6.74313 5.50295 6.39563 5.61357 6.07037C5.29772 6.00208 4.97208 5.98871 4.65098 6.03129C4.25426 6.08597 3.86771 6.19917 3.504 6.36717L3.10607 6.55098L2.87176 6.18052C2.80034 6.0676 2.7469 5.94331 2.71468 5.81182C2.69719 5.75752 2.68056 5.70393 2.66745 5.66166L2.66529 5.65471L2.64692 5.59596L2.64465 5.58897L2.64216 5.58294L2.63596 5.56365C2.60459 5.46611 2.57335 5.36744 2.54327 5.26769L1.48084 7.68547ZM1.48084 7.68547C1.57528 7.57434 1.67507 7.46791 1.7799 7.36659L1.77995 7.36655C1.92083 7.23036 2.07119 7.10469 2.23009 6.99035L2.58357 6.73598L2.38012 6.35092C2.01692 5.66352 1.75593 4.92687 1.60527 4.16417C1.53287 3.74955 1.53654 3.32526 1.61615 2.91209C1.71425 2.42796 1.9174 1.97145 2.21134 1.57461C2.54109 1.16446 2.95821 0.833022 3.43222 0.604589L3.43224 0.604642L3.43911 0.601204C3.48073 0.580352 3.52451 0.565091 3.56934 0.55571L3.56934 0.555712L3.5707 0.555424C3.60803 0.547505 3.64701 0.545177 3.68626 0.548751L3.69398 0.549455L3.70173 0.549918C3.82986 0.557589 3.9548 0.593521 4.06741 0.654999C4.08103 0.665569 4.09008 0.681313 4.09219 0.69892L4.0931 0.706543L4.09425 0.714133C4.10197 0.765247 4.09127 0.817115 4.06427 0.860689L4.06426 0.860682L4.06238 0.863776C4.02479 0.925444 3.9697 0.974562 3.90398 1.0049L3.90397 1.0049L3.90251 1.00558C3.669 1.11431 3.44608 1.24492 3.23691 1.39566L3.23641 1.39602C3.03047 1.54482 2.84219 1.71702 2.67558 1.9092L2.6561 1.93167L2.63942 1.95629C2.44497 2.24334 2.31679 2.5701 2.26445 2.91297C2.21637 3.22417 2.20908 3.5401 2.24256 3.85295C2.26047 4.04399 2.28848 4.23375 2.32658 4.42186C2.32663 4.42212 2.32669 4.42237 2.32674 4.42263L1.48084 7.68547ZM2.64269 5.58292L2.64273 5.58304C2.64234 5.58195 2.64215 5.58138 2.64218 5.58144C2.6422 5.58149 2.64236 5.58196 2.64269 5.58292ZM2.45733 4.96695C2.48453 5.0682 2.51323 5.16819 2.54321 5.26747L2.45733 4.96695Z" stroke="black"/>
</g>
<defs>
<clipPath id="clip0">
<rect width="20" height="20" fill="white"/>
</clipPath>
</defs>
</svg>
