<svg width="40" height="40" viewBox="0 0 40 40" fill="none" xmlns="http://www.w3.org/2000/svg">
<g clip-path="url(#clip0)">
<path d="M10.6668 17.3336H9.3335V18.6669H10.6668V17.3336Z" fill="black"/>
<path d="M14.0001 16.0002H12.6667V17.3336H14.0001V16.0002Z" fill="black"/>
<path d="M18.0001 17.3336H16.6667V18.6669H18.0001V17.3336Z" fill="black"/>
<path d="M22 16.0002H20.6666V17.3336H22V16.0002Z" fill="black"/>
<path d="M26.6666 16.0002H25.3333V17.3336H26.6666V16.0002Z" fill="black"/>
<path d="M29.9999 17.3336H28.6666V18.6669H29.9999V17.3336Z" fill="black"/>
<path d="M22 4.00037H20.6666V5.33369H22V4.00037Z" fill="black"/>
<path d="M16.6667 9.33362H15.3334V10.6669H16.6667V9.33362Z" fill="black"/>
<path d="M19.9999 10.667H18.6666V12.0003H19.9999V10.667Z" fill="black"/>
<path d="M25.9999 9.33362H24.6666V10.6669H25.9999V9.33362Z" fill="black"/>
<path d="M33.6259 20.0149C35.1108 18.3848 34.993 15.8595 33.3629 14.3746C32.6256 13.7031 31.6638 13.3317 30.6666 13.3336H28.9733C30.4497 11.6953 30.3184 9.17035 28.6801 7.69387C27.9449 7.03129 26.9897 6.66529 26 6.66704H25.954C25.616 4.00315 23.3519 2.00493 20.6667 2.00042H19.7527C19.2538 2.01617 18.8106 1.68385 18.686 1.20043C18.6597 1.06843 18.6597 0.932436 18.686 0.800438C18.7205 0.60194 18.6642 0.398442 18.5327 0.245777C18.3994 0.0902783 18.2049 0.000695888 18 0.000445891C16.2878 -0.0233872 14.7564 1.06177 14.2114 2.68508C13.7911 3.92457 13.9968 5.29089 14.7634 6.35171C14.8446 6.46163 14.9313 6.56738 15.0234 6.66838H14.0001C11.7947 6.66463 10.0037 8.44936 9.99996 10.6548C9.99829 11.6446 10.3642 12.5997 11.0268 13.335H9.33347C7.12841 13.3307 5.33743 15.1149 5.33318 17.3199C5.33126 18.3172 5.70259 19.279 6.37417 20.0162C4.28627 20.1694 2.66962 21.9066 2.66687 24.0002C2.66654 25.3133 3.31861 26.5408 4.40685 27.2755L8.70414 39.5534C8.79764 39.8209 9.05005 40 9.33347 40H30.6666C30.95 40 31.2024 39.8209 31.2959 39.5534L35.5932 27.2755C36.6814 26.5408 37.3335 25.3133 37.3332 24.0002C37.3312 21.9061 35.7144 20.1681 33.6259 20.0149ZM15.4801 3.10041C15.7754 2.24909 16.4906 1.61143 17.3701 1.4151C17.3701 1.42843 17.3747 1.44176 17.3767 1.4551C17.6199 2.56742 18.6142 3.35366 19.7527 3.33374H20.6667C22.6177 3.33616 24.2834 4.74373 24.6113 6.66704H18C17.1463 6.66529 16.3446 6.2568 15.8414 5.56705C15.3297 4.85148 15.1951 3.93266 15.4801 3.10041ZM14.0001 8.00036H26C27.4727 8.00036 28.6666 9.19427 28.6666 10.667C28.6666 12.1397 27.4727 13.3336 26 13.3336H14.0001C12.5274 13.3336 11.3334 12.1397 11.3334 10.667C11.3334 9.19427 12.5274 8.00036 14.0001 8.00036ZM9.33347 14.667H30.6666C32.1393 14.667 33.3332 15.8609 33.3332 17.3336C33.3332 18.8063 32.1393 20.0002 30.6666 20.0002H9.33347C7.86073 20.0002 6.66683 18.8063 6.66683 17.3336C6.66683 15.8609 7.86073 14.667 9.33347 14.667ZM9.8068 38.6667L5.42417 26.1448C5.80134 25.7755 6.29758 25.5524 6.82416 25.5155C7.46774 25.4732 8.09856 25.7083 8.55748 26.1615L8.71214 26.3162L10.5595 38.6667H9.8068ZM11.9081 38.6667L10.0415 26.2335L10.4261 25.8488C11.2954 24.9821 12.7021 24.9821 13.5714 25.8488L14.0134 26.2895L14.6321 38.6667H11.9081ZM19.3334 38.6667H15.9681L15.3474 26.2622L15.7607 25.8488C16.6301 24.9821 18.0367 24.9821 18.906 25.8488L19.3334 26.2762V38.6667ZM24.032 38.6667H20.6667V26.2762L21.094 25.8488C21.9633 24.9821 23.37 24.9821 24.2393 25.8488L24.6526 26.2622L24.032 38.6667ZM25.368 38.6667L25.9866 26.2895L26.4273 25.8488C27.2966 24.9821 28.7033 24.9821 29.5726 25.8488L29.9573 26.2335L28.0919 38.6667H25.368ZM30.1933 38.6667H29.4406L31.2932 26.3162L31.4479 26.1615C32.3096 25.299 33.7051 25.2916 34.5759 26.1448L30.1933 38.6667ZM35.6412 25.3288L35.6332 25.3215C35.4954 25.1742 35.3452 25.0389 35.1845 24.9169C35.1592 24.8975 35.1345 24.8775 35.1092 24.8589C34.9521 24.7453 34.786 24.6447 34.6125 24.5582C34.5812 24.5422 34.5499 24.5275 34.5172 24.5122C34.3402 24.4304 34.1566 24.3635 33.9685 24.3122C33.9419 24.3042 33.9145 24.2995 33.8872 24.2929C33.6857 24.2405 33.4801 24.2059 33.2726 24.1895C33.1879 24.1835 33.1039 24.1809 33.0199 24.1809C32.9359 24.1809 32.8592 24.1969 32.7786 24.2022C32.6732 24.2095 32.5686 24.2149 32.4646 24.2309C32.3479 24.2495 32.2352 24.2802 32.1212 24.3102C32.0192 24.3369 31.9172 24.3589 31.8179 24.3942C31.6933 24.4425 31.5716 24.4979 31.4532 24.5602C31.3746 24.5989 31.2932 24.6269 31.2179 24.6735C31.0239 24.7869 30.8411 24.9184 30.6719 25.0662L30.5153 24.9095C29.125 23.5229 26.8749 23.5229 25.4846 24.9095L25.3333 25.0575L25.182 24.9062C23.7917 23.5196 21.5416 23.5196 20.1514 24.9062L20 25.0575L19.8487 24.9062C18.4585 23.5196 16.2083 23.5196 14.8181 24.9062L14.6667 25.0575L14.5154 24.9062C13.1252 23.5196 10.875 23.5196 9.4848 24.9062L9.32814 25.0628C8.45314 24.2835 7.24649 23.9933 6.11283 24.2895C6.0855 24.2962 6.05817 24.3009 6.0315 24.3089C5.84342 24.3602 5.65984 24.4271 5.48284 24.5089C5.45017 24.5242 5.41618 24.5389 5.38751 24.5549C5.21401 24.6414 5.04793 24.7419 4.89085 24.8555C4.86551 24.8742 4.84085 24.8942 4.81551 24.9135C4.65485 25.0355 4.50477 25.1709 4.36685 25.3182L4.35885 25.3255C4.12344 24.9235 3.99961 24.466 4.00019 24.0002C4.00019 22.5275 5.19409 21.3336 6.66683 21.3336H33.3332C34.806 21.3336 35.9999 22.5275 35.9999 24.0002C36.001 24.4671 35.8772 24.9259 35.6412 25.3288Z" fill="black"/>
</g>
<defs>
<clipPath id="clip0">
<rect width="40" height="40" fill="white"/>
</clipPath>
</defs>
</svg>
