<svg width="20" height="20" viewBox="0 0 20 20" fill="none" xmlns="http://www.w3.org/2000/svg">
<path d="M13.4795 0C13.4795 0 15.2463 4.3225 7.67389 7.22591C3.55919 8.80309 0.398868 12.8456 4.1723 19.0902C4.4848 16.299 5.82478 10.1446 11.5866 8.74025C11.5866 8.74025 6.22385 10.7455 5.75012 19.8227C8.50574 20.2096 14.9685 20.4696 16.8873 14.8612C19.421 7.45121 13.4795 0 13.4795 0Z" fill="#3A7F0D"/>
<path d="M5.75262 19.7849C11.6026 17.4502 15.8592 11.9809 16.4466 5.45186C15.2507 2.22592 13.4795 0 13.4795 0C13.4795 0 15.2463 4.3225 7.67389 7.22591C3.55919 8.80309 0.398867 12.8456 4.1723 19.0902C4.4848 16.299 5.82478 10.1446 11.5866 8.74025C11.5863 8.74029 6.23948 10.7406 5.75262 19.7849Z" fill="#49A010"/>
<path d="M3.58894 7.37002C3.89098 7.37002 4.13583 7.12517 4.13583 6.82313C4.13583 6.5211 3.89098 6.27625 3.58894 6.27625C3.2869 6.27625 3.04205 6.5211 3.04205 6.82313C3.04205 7.12517 3.2869 7.37002 3.58894 7.37002Z" fill="#3A7F0D"/>
<path d="M5.30608 6.66685C5.52181 6.66685 5.69669 6.49197 5.69669 6.27624C5.69669 6.06051 5.52181 5.88562 5.30608 5.88562C5.09035 5.88562 4.91547 6.06051 4.91547 6.27624C4.91547 6.49197 5.09035 6.66685 5.30608 6.66685Z" fill="#49A010"/>
<path d="M4.95536 3.5419C5.49469 3.5419 5.93191 3.10468 5.93191 2.56535C5.93191 2.02602 5.49469 1.58881 4.95536 1.58881C4.41603 1.58881 3.97882 2.02602 3.97882 2.56535C3.97882 3.10468 4.41603 3.5419 4.95536 3.5419Z" fill="#49A010"/>
<path d="M7.96338 5.10443C8.13597 5.10443 8.27588 4.96452 8.27588 4.79193C8.27588 4.61934 8.13597 4.47943 7.96338 4.47943C7.79079 4.47943 7.65088 4.61934 7.65088 4.79193C7.65088 4.96452 7.79079 5.10443 7.96338 5.10443Z" fill="#49A010"/>
<path d="M10.58 3.93248C11.0761 3.93248 11.4784 3.53024 11.4784 3.03405C11.4784 2.53786 11.0761 2.13562 10.58 2.13562C10.0838 2.13562 9.68152 2.53786 9.68152 3.03405C9.68152 3.53024 10.0838 3.93248 10.58 3.93248Z" fill="#49A010"/>
</svg>
