<svg width="862" height="804" viewBox="0 0 862 804" fill="none" xmlns="http://www.w3.org/2000/svg">
<path d="M270 242.5C56.1923 231.357 7.32427 24.0075 0.285313 -54.8851C-0.0785087 -58.9628 2.18724 -62.7731 5.8832 -64.5338L118.176 -118.028C119.519 -118.668 120.988 -119 122.476 -119H867.228C872.427 -119 876.759 -115.016 877.193 -109.835L932.5 550.5V803.5C929.891 738.583 682.5 818 611.5 676.5C508.057 487.716 329.307 637.935 354.182 551.582C354.372 550.921 354.528 550.172 354.591 549.487C365.229 433.385 489.57 253.943 270 242.5Z" fill="url(#paint0_linear)"/>
<defs>
<linearGradient id="paint0_linear" x1="844" y1="-18" x2="164" y2="595.5" gradientUnits="userSpaceOnUse">
<stop stop-color="#FEAE37"/>
<stop offset="1" stop-color="#FAA72A"/>
</linearGradient>
</defs>
</svg>
