<svg width="30" height="30" viewBox="0 0 30 30" fill="none" xmlns="http://www.w3.org/2000/svg">
<path d="M14.9999 2.5C10.1624 2.5 6.24988 6.4125 6.24988 11.25C6.24988 13.425 6.87488 15.4625 8.01238 17.3C9.19988 19.225 10.7624 20.875 11.9624 22.8C12.5499 23.7375 12.9749 24.6125 13.4249 25.625C13.7499 26.3125 14.0124 27.5 14.9999 27.5C15.9874 27.5 16.2499 26.3125 16.5624 25.625C17.0249 24.6125 17.4374 23.7375 18.0249 22.8C19.2249 20.8875 20.7874 19.2375 21.9749 17.3C23.1249 15.4625 23.7499 13.425 23.7499 11.25C23.7499 6.4125 19.8374 2.5 14.9999 2.5ZM14.9999 14.6875C13.2749 14.6875 11.8749 13.2875 11.8749 11.5625C11.8749 9.8375 13.2749 8.4375 14.9999 8.4375C16.7249 8.4375 18.1249 9.8375 18.1249 11.5625C18.1249 13.2875 16.7249 14.6875 14.9999 14.6875Z" fill="white"/>
</svg>
