<svg width="291" height="424" viewBox="0 0 291 424" fill="none" xmlns="http://www.w3.org/2000/svg">
<path d="M197.108 124.18C190.321 44.1676 261.567 13.2795 294.107 4.74681C298.065 3.70878 302.155 5.4455 304.403 8.86493L328.122 44.9375C328.94 46.1818 329.47 47.5932 329.673 49.0686L369.542 338.836C369.638 339.537 369.437 340.246 368.987 340.792L367.233 342.923C315.802 405.399 222.428 411.797 162.955 356.92C162.656 356.644 162.294 356.446 161.9 356.342L143.369 351.47C133.007 348.746 74.7241 326.228 64.9057 321.94C41.642 311.779 20.8481 297.623 46.9482 279.712C90.8782 247.167 65.4157 233.168 51.5422 228.847C51.4925 228.839 51.4431 228.832 51.3941 228.824C40.0701 226.986 44.1699 226.55 51.5422 228.847C52.1795 228.941 52.8645 228.982 53.5012 228.947C99.5995 226.437 204.346 209.522 197.108 124.18Z" fill="url(#paint0_linear)"/>
<defs>
<linearGradient id="paint0_linear" x1="328.781" y1="332.759" x2="54.7155" y2="101.69" gradientUnits="userSpaceOnUse">
<stop stop-color="#FEAE37"/>
<stop offset="1" stop-color="#FAA72A"/>
</linearGradient>
</defs>
</svg>
