<svg aria-hidden="true" style="position: absolute; width: 0; height: 0; overflow: hidden;" version="1.1" xmlns="http://www.w3.org/2000/svg" xmlns:xlink="http://www.w3.org/1999/xlink">
<defs>
<symbol id="icon-snacks" viewBox="0 0 32 32">
<path d="M29.5 8h-0.73c-0.026 0-0.052 0.001-0.078 0.003-2.103-3.325-5.423-5.695-9.25-6.605-0.277-0.255-0.639-0.397-1.016-0.398h-0.851c-0.126 0-0.252 0.016-0.374 0.048-0.398-0.032-0.801-0.048-1.201-0.048-1.791-0.002-3.568 0.317-5.246 0.944l-1.268-0.74c-0.229-0.134-0.49-0.204-0.756-0.204h-0.73c-0.398 0-0.779 0.159-1.060 0.44s-0.439 0.662-0.44 1.060v1.893c-1.723 1.403-3.111 3.173-4.062 5.182s-1.443 4.203-1.438 6.425c0 0.579 0.034 1.158 0.1 1.733-0.066 0.171-0.1 0.353-0.1 0.537v0.73c0 0.232 0.054 0.46 0.157 0.668s0.254 0.388 0.439 0.528c0.469 1.615 1.208 3.139 2.186 4.506-0.182 0.254-0.281 0.559-0.282 0.872v0.851c0.001 0.262 0.069 0.519 0.2 0.747s0.318 0.417 0.544 0.549l5.27 3.074c0.229 0.134 0.49 0.204 0.756 0.204h0.73c0.212 0 0.422-0.045 0.616-0.133s0.366-0.215 0.507-0.374c2.327 0.62 4.768 0.672 7.119 0.151s4.542-1.599 6.389-3.144h3.87c0.398-0.001 0.779-0.159 1.060-0.44s0.439-0.662 0.44-1.060v-0.73c0-0.266-0.071-0.526-0.204-0.756l-1.23-2.109c0.844-1.777 1.325-3.704 1.416-5.67 0.012-0.078 0.019-0.157 0.019-0.236v-7c-0-0.398-0.159-0.779-0.44-1.060s-0.663-0.439-1.060-0.44zM27.736 8.367l-1.73 1.009c-1.036-1.56-2.42-2.858-4.044-3.791l-1.706-2.925c3.074 0.989 5.715 3.003 7.481 5.706zM22.974 7.495c0.835 0.685 1.565 1.489 2.167 2.386l-2.396 1.398c-0.203 0.119-0.375 0.283-0.502 0.481s-0.207 0.421-0.233 0.655c-0.593-0.989-1.42-1.818-2.408-2.414h1.898c0.398-0 0.779-0.159 1.060-0.44s0.439-0.662 0.44-1.060v-0.73c-0-0.092-0.009-0.185-0.026-0.276h0zM17.574 2h0.851c0.087 0 0.173 0.023 0.249 0.067s0.139 0.106 0.183 0.181l3.074 5.271c0.045 0.076 0.068 0.163 0.068 0.252v0.729c-0 0.133-0.053 0.26-0.147 0.353s-0.221 0.146-0.353 0.147h-7c-0.133-0-0.26-0.053-0.353-0.147s-0.146-0.221-0.147-0.353v-0.338l0.756-0.441c0.226-0.133 0.414-0.322 0.544-0.549s0.199-0.485 0.2-0.747v-0.851c-0-0.139-0.020-0.277-0.058-0.411l1.701-2.916c0.044-0.075 0.107-0.138 0.183-0.181s0.162-0.066 0.249-0.067zM16 2c0.043 0 0.086 0.001 0.129 0.001l-1.34 2.298c-0.011-0.007-0.021-0.014-0.033-0.020l-2.859-1.667c1.33-0.407 2.712-0.613 4.103-0.611zM7.5 2.5c0-0.133 0.053-0.26 0.147-0.353s0.221-0.146 0.353-0.147h0.73c0.089 0 0.175 0.024 0.252 0.068l5.27 3.074c0.075 0.044 0.138 0.107 0.181 0.183s0.066 0.162 0.067 0.249v0.851c-0 0.087-0.023 0.173-0.067 0.249s-0.106 0.139-0.181 0.183l-5.27 3.074c-0.076 0.045-0.163 0.068-0.252 0.068h-0.73c-0.133-0-0.26-0.053-0.353-0.147s-0.146-0.221-0.147-0.353v-7zM6.5 5.717v3.783c0 0.398 0.159 0.779 0.44 1.060s0.662 0.439 1.060 0.44h0.73c0.266-0 0.526-0.071 0.756-0.204l3.533-2.061c0.046 0.288 0.174 0.556 0.37 0.771-1.082 0.438-2.038 1.138-2.781 2.037s-1.251 1.97-1.477 3.115l-1.408-2.414c-0.133-0.226-0.322-0.414-0.549-0.544s-0.485-0.199-0.747-0.2h-0.851c-0.262 0.001-0.519 0.069-0.747 0.2s-0.417 0.318-0.549 0.544l-2.276 3.903c-0.001-0.049-0.002-0.098-0.002-0.147-0.005-1.932 0.393-3.845 1.168-5.615s1.91-3.36 3.332-4.668zM2 19v-0.73c0-0.089 0.024-0.175 0.068-0.252l3.074-5.27c0.044-0.075 0.107-0.138 0.183-0.181s0.162-0.066 0.249-0.067h0.851c0.087 0 0.173 0.023 0.249 0.067s0.139 0.106 0.183 0.181l2.157 3.698c0.064 1.018 0.351 2.010 0.841 2.905-0.046 0.047-0.102 0.085-0.163 0.11s-0.127 0.039-0.193 0.039h-7c-0.133-0-0.26-0.053-0.353-0.147s-0.146-0.221-0.147-0.353zM10.402 20.198c0.216 0.287 0.453 0.556 0.709 0.807-0.037-0.003-0.074-0.005-0.111-0.005h-0.73c-0.266 0-0.526 0.071-0.756 0.204l-2.339 1.365c-0.48-0.643-0.888-1.337-1.216-2.069h3.54c0.325 0 0.642-0.106 0.902-0.302zM2.739 20.5h2.134c0.37 0.914 0.852 1.779 1.434 2.575l-1.735 1.013c-0.782-1.1-1.399-2.309-1.832-3.588zM11.5 29.5c-0 0.133-0.053 0.26-0.147 0.353s-0.221 0.146-0.353 0.147h-0.73c-0.089 0-0.175-0.024-0.252-0.068l-5.27-3.074c-0.075-0.044-0.138-0.107-0.181-0.183s-0.067-0.162-0.067-0.249v-0.851c0-0.087 0.023-0.173 0.067-0.249s0.106-0.139 0.181-0.183l5.27-3.074c0.076-0.045 0.163-0.068 0.252-0.068h0.73c0.133 0 0.26 0.053 0.353 0.147s0.146 0.221 0.147 0.353v7zM10 16c0-1.187 0.352-2.347 1.011-3.333s1.596-1.756 2.693-2.21c1.096-0.454 2.303-0.573 3.467-0.341s2.233 0.803 3.072 1.642c0.839 0.839 1.41 1.908 1.642 3.072s0.113 2.37-0.341 3.467c-0.454 1.096-1.223 2.034-2.21 2.693s-2.147 1.011-3.334 1.011c-1.591-0.002-3.116-0.635-4.241-1.759s-1.758-2.65-1.759-4.241zM22.251 23.142c0.075 0.044 0.138 0.107 0.181 0.183s0.066 0.162 0.067 0.249v0.851c-0 0.087-0.023 0.173-0.067 0.249s-0.106 0.139-0.181 0.183l-5.27 3.074c-0.076 0.045-0.163 0.068-0.252 0.068h-0.73c-0.133-0-0.26-0.053-0.353-0.147s-0.146-0.221-0.147-0.353v-4.518c0.165 0.012 0.332 0.018 0.5 0.018 1.403 0.002 2.773-0.421 3.931-1.211l2.321 1.354zM14.5 22.837v4.059c-0.68-0.092-1.349-0.248-2-0.466v-3.931c0-0.166-0.028-0.331-0.082-0.488 0.645 0.386 1.348 0.665 2.082 0.826zM16 30c-1.181 0.001-2.358-0.148-3.502-0.442 0.001-0.019 0.002-0.039 0.002-0.058v-2.020c0.672 0.205 1.361 0.35 2.058 0.433 0.090 0.313 0.279 0.588 0.539 0.784s0.577 0.302 0.902 0.303h0.73c0.266-0 0.526-0.071 0.756-0.204l3.666-2.139c0.123 0.253 0.315 0.465 0.553 0.615s0.514 0.228 0.795 0.229h1.485c-2.344 1.628-5.131 2.501-7.985 2.5zM29.931 25.019c0.045 0.076 0.068 0.163 0.068 0.252v0.729c-0 0.133-0.053 0.26-0.147 0.353s-0.221 0.147-0.353 0.147h-7c-0.107 0-0.21-0.034-0.296-0.097s-0.149-0.152-0.181-0.254l0.733-0.428c0.226-0.133 0.414-0.322 0.544-0.549s0.2-0.485 0.2-0.747v-0.851c-0.001-0.246-0.062-0.489-0.178-0.706l1.82-3.121c0.044-0.075 0.107-0.138 0.183-0.181s0.162-0.066 0.249-0.067h0.851c0.087 0 0.173 0.023 0.249 0.067s0.139 0.106 0.183 0.181l3.074 5.271zM28.944 21.341l-1.223-2.097c-0.133-0.226-0.322-0.414-0.549-0.544s-0.485-0.2-0.747-0.2h-0.851c-0.262 0-0.52 0.069-0.747 0.2s-0.417 0.318-0.549 0.544l-1.707 2.927-1.803-1.052c0.851-0.792 1.492-1.783 1.864-2.884s0.463-2.278 0.266-3.424l5.116 2.984c0.229 0.134 0.49 0.204 0.756 0.204h0.73c0.123 0 0.246-0.015 0.365-0.045-0.161 1.163-0.471 2.301-0.921 3.386v0zM30 16c0 0.207-0.006 0.413-0.015 0.618-0.026 0.109-0.088 0.206-0.177 0.275s-0.197 0.107-0.309 0.107h-0.73c-0.088-0-0.175-0.024-0.252-0.068l-5.27-3.074c-0.075-0.044-0.138-0.107-0.181-0.183s-0.066-0.162-0.067-0.249v-0.851c0-0.087 0.023-0.173 0.067-0.249s0.106-0.139 0.181-0.183l5.271-3.074c0.076-0.045 0.163-0.068 0.252-0.068h0.729c0.133 0 0.26 0.053 0.353 0.147s0.146 0.221 0.147 0.353v6.5z"></path>
<path d="M21 16c0-0.989-0.293-1.956-0.843-2.778s-1.33-1.463-2.244-1.842-1.919-0.477-2.889-0.285c-0.97 0.193-1.861 0.669-2.56 1.368s-1.175 1.59-1.368 2.56c-0.193 0.97-0.094 1.975 0.285 2.889s1.019 1.695 1.842 2.244 1.789 0.843 2.778 0.843c1.326-0.002 2.597-0.529 3.534-1.466s1.465-2.208 1.466-3.534zM12 16c0-0.791 0.235-1.564 0.674-2.222s1.064-1.171 1.795-1.473c0.731-0.303 1.535-0.382 2.311-0.228s1.489 0.535 2.048 1.095c0.559 0.559 0.94 1.272 1.095 2.048s0.075 1.58-0.228 2.311c-0.303 0.731-0.815 1.356-1.473 1.795s-1.431 0.674-2.222 0.674c-1.060-0.001-2.077-0.423-2.827-1.173s-1.172-1.767-1.173-2.827z"></path>
<path d="M16.5 14c0.398 0 0.779 0.159 1.060 0.44s0.439 0.662 0.44 1.060c0 0.133 0.053 0.26 0.146 0.354s0.221 0.146 0.354 0.146c0.133 0 0.26-0.053 0.354-0.146s0.146-0.221 0.146-0.354c-0.001-0.663-0.264-1.298-0.733-1.767s-1.104-0.732-1.767-0.733c-0.133 0-0.26 0.053-0.354 0.146s-0.146 0.221-0.146 0.354c0 0.133 0.053 0.26 0.146 0.354s0.221 0.146 0.354 0.146z"></path>
<path d="M15.5 18c-0.398-0-0.779-0.159-1.060-0.44s-0.439-0.662-0.44-1.060c0-0.133-0.053-0.26-0.146-0.354s-0.221-0.146-0.354-0.146c-0.133 0-0.26 0.053-0.354 0.146s-0.146 0.221-0.146 0.354c0.001 0.663 0.264 1.298 0.733 1.767s1.104 0.732 1.767 0.733c0.133 0 0.26-0.053 0.354-0.146s0.146-0.221 0.146-0.354-0.053-0.26-0.146-0.354c-0.094-0.094-0.221-0.146-0.354-0.146z"></path>
<path d="M20.5 8c0.276 0 0.5-0.224 0.5-0.5s-0.224-0.5-0.5-0.5c-0.276 0-0.5 0.224-0.5 0.5s0.224 0.5 0.5 0.5z"></path>
<path d="M18.5 8c0.276 0 0.5-0.224 0.5-0.5s-0.224-0.5-0.5-0.5c-0.276 0-0.5 0.224-0.5 0.5s0.224 0.5 0.5 0.5z"></path>
<path d="M5.5 18.5c0.276 0 0.5-0.224 0.5-0.5s-0.224-0.5-0.5-0.5c-0.276 0-0.5 0.224-0.5 0.5s0.224 0.5 0.5 0.5z"></path>
<path d="M3.5 18.5c0.276 0 0.5-0.224 0.5-0.5s-0.224-0.5-0.5-0.5c-0.276 0-0.5 0.224-0.5 0.5s0.224 0.5 0.5 0.5z"></path>
<path d="M28.5 16c0.276 0 0.5-0.224 0.5-0.5s-0.224-0.5-0.5-0.5c-0.276 0-0.5 0.224-0.5 0.5s0.224 0.5 0.5 0.5z"></path>
<path d="M28.5 14c0.276 0 0.5-0.224 0.5-0.5s-0.224-0.5-0.5-0.5c-0.276 0-0.5 0.224-0.5 0.5s0.224 0.5 0.5 0.5z"></path>
<path d="M9.646 27.646c-0.070 0.070-0.118 0.159-0.137 0.256s-0.009 0.197 0.028 0.289c0.038 0.091 0.102 0.169 0.184 0.224s0.179 0.084 0.278 0.084 0.196-0.029 0.278-0.084c0.082-0.055 0.146-0.133 0.184-0.224s0.048-0.192 0.028-0.289-0.067-0.186-0.137-0.256c-0.046-0.047-0.102-0.083-0.162-0.108s-0.126-0.038-0.191-0.038-0.131 0.013-0.191 0.038c-0.061 0.025-0.116 0.062-0.162 0.108z"></path>
<path d="M10 26.5c0.276 0 0.5-0.224 0.5-0.5s-0.224-0.5-0.5-0.5c-0.276 0-0.5 0.224-0.5 0.5s0.224 0.5 0.5 0.5z"></path>
<path d="M24.5 25.5c0.276 0 0.5-0.224 0.5-0.5s-0.224-0.5-0.5-0.5-0.5 0.224-0.5 0.5c0 0.276 0.224 0.5 0.5 0.5z"></path>
<path d="M26.5 25.5c0.276 0 0.5-0.224 0.5-0.5s-0.224-0.5-0.5-0.5-0.5 0.224-0.5 0.5c0 0.276 0.224 0.5 0.5 0.5z"></path>
</symbol>
<symbol id="icon-desserts" viewBox="0 0 32 32">
<path d="M8.534 13.867h-1.067v1.067h1.067v-1.067z"></path>
<path d="M11.2 12.8h-1.067v1.067h1.067v-1.067z"></path>
<path d="M14.4 13.867h-1.067v1.067h1.067v-1.067z"></path>
<path d="M17.6 12.8h-1.067v1.067h1.067v-1.067z"></path>
<path d="M21.334 12.8h-1.067v1.067h1.067v-1.067z"></path>
<path d="M24 13.867h-1.067v1.067h1.067v-1.067z"></path>
<path d="M17.6 3.2h-1.067v1.067h1.067v-1.067z"></path>
<path d="M13.334 7.467h-1.067v1.067h1.067v-1.067z"></path>
<path d="M16 8.534h-1.067v1.067h1.067v-1.067z"></path>
<path d="M20.8 7.467h-1.067v1.067h1.067v-1.067z"></path>
<path d="M26.901 16.012c1.188-1.304 1.094-3.324-0.21-4.512-0.59-0.537-1.359-0.834-2.157-0.833h-1.355c1.181-1.311 1.076-3.331-0.235-4.512-0.588-0.53-1.352-0.823-2.144-0.821h-0.037c-0.27-2.131-2.082-3.73-4.23-3.733h-0.731c-0.399 0.013-0.754-0.253-0.853-0.64-0.021-0.106-0.021-0.214 0-0.32 0.028-0.159-0.017-0.322-0.123-0.444-0.107-0.124-0.262-0.196-0.426-0.196-1.37-0.019-2.595 0.849-3.031 2.148-0.336 0.992-0.172 2.085 0.442 2.933 0.065 0.088 0.134 0.173 0.208 0.253h-0.819c-1.764-0.003-3.197 1.425-3.2 3.189-0.001 0.792 0.291 1.556 0.821 2.144h-1.355c-1.764-0.003-3.197 1.424-3.2 3.188-0.002 0.798 0.296 1.567 0.833 2.157-1.67 0.123-2.964 1.512-2.966 3.187-0 1.051 0.521 2.033 1.392 2.62l3.438 9.822c0.075 0.214 0.277 0.357 0.503 0.357h17.067c0.227 0 0.429-0.143 0.503-0.357l3.438-9.822c0.871-0.588 1.392-1.57 1.392-2.62-0.002-1.675-1.295-3.066-2.966-3.188zM12.384 2.48c0.236-0.681 0.808-1.191 1.512-1.348 0 0.011 0.004 0.021 0.005 0.032 0.195 0.89 0.99 1.519 1.901 1.503h0.731c1.561 0.002 2.893 1.128 3.156 2.667h-5.289c-0.683-0.001-1.324-0.328-1.727-0.88-0.409-0.572-0.517-1.308-0.289-1.973zM11.2 6.4h9.6c1.178 0 2.133 0.955 2.133 2.133s-0.955 2.133-2.133 2.133h-9.6c-1.178 0-2.133-0.955-2.133-2.133s0.955-2.133 2.133-2.133zM7.467 11.734h17.067c1.178 0 2.133 0.955 2.133 2.133s-0.955 2.133-2.133 2.133h-17.067c-1.178 0-2.133-0.955-2.133-2.133s0.955-2.133 2.133-2.133zM7.845 30.933l-3.506-10.018c0.302-0.296 0.699-0.474 1.12-0.504 0.515-0.034 1.020 0.154 1.387 0.517l0.124 0.124 1.478 9.88h-0.602zM9.526 30.933l-1.493-9.947 0.308-0.308c0.695-0.693 1.821-0.693 2.516 0l0.354 0.353 0.495 9.902h-2.179zM15.466 30.933h-2.692l-0.497-9.924 0.331-0.331c0.695-0.693 1.821-0.693 2.516 0l0.342 0.342v9.912zM19.225 30.933h-2.692v-9.912l0.342-0.342c0.695-0.693 1.821-0.693 2.516 0l0.331 0.331-0.497 9.924zM20.294 30.933l0.495-9.902 0.353-0.353c0.695-0.693 1.821-0.693 2.516 0l0.308 0.308-1.492 9.947h-2.179zM24.154 30.933h-0.602l1.482-9.88 0.124-0.124c0.689-0.69 1.806-0.696 2.502-0.013l-3.506 10.017zM28.513 20.263l-0.006-0.006c-0.11-0.118-0.23-0.226-0.359-0.324-0.020-0.015-0.040-0.031-0.060-0.047-0.126-0.091-0.259-0.171-0.397-0.24-0.025-0.013-0.050-0.025-0.076-0.037-0.142-0.065-0.289-0.119-0.439-0.16-0.021-0.006-0.043-0.010-0.065-0.015-0.161-0.042-0.326-0.069-0.492-0.083-0.068-0.005-0.135-0.007-0.202-0.007s-0.128 0.013-0.193 0.017c-0.084 0.006-0.168 0.010-0.251 0.023-0.093 0.015-0.183 0.039-0.275 0.063-0.081 0.021-0.163 0.039-0.243 0.067-0.1 0.039-0.197 0.083-0.292 0.133-0.063 0.031-0.128 0.053-0.188 0.091-0.155 0.091-0.302 0.196-0.437 0.314l-0.125-0.125c-1.112-1.109-2.912-1.109-4.024 0l-0.121 0.118-0.121-0.121c-1.112-1.109-2.912-1.109-4.024 0l-0.121 0.121-0.121-0.121c-1.112-1.109-2.912-1.109-4.024 0l-0.121 0.121-0.121-0.121c-1.112-1.109-2.912-1.109-4.024 0l-0.125 0.125c-0.7-0.623-1.665-0.856-2.572-0.619-0.022 0.005-0.044 0.009-0.065 0.015-0.15 0.041-0.297 0.095-0.439 0.16-0.026 0.012-0.053 0.024-0.076 0.037-0.139 0.069-0.272 0.15-0.397 0.241-0.020 0.015-0.040 0.031-0.060 0.047-0.129 0.098-0.249 0.206-0.359 0.324l-0.006 0.006c-0.188-0.322-0.287-0.688-0.287-1.060 0-1.178 0.955-2.133 2.133-2.133h21.333c1.178 0 2.133 0.955 2.133 2.133 0.001 0.374-0.098 0.741-0.287 1.063z"></path>
</symbol>
<symbol id="icon-drink" viewBox="0 0 24 32">
<path d="M20.305 3.124c-2.097 0.003-3.865 1.564-4.129 3.645h-1.308l1.663-5.727h1.692v-1.041h-2.083c-0.232 0-0.435 0.153-0.5 0.375l-1.856 6.393h-13.264c-0.288-0-0.521 0.233-0.521 0.521 0 0.117 0.040 0.231 0.113 0.323l9.78 12.353v10.232h-4.165v1.041h9.372v-1.041h-4.165v-10.232l7.222-9.123c0.645 0.4 1.39 0.612 2.149 0.611 2.3 0 4.165-1.865 4.165-4.165s-1.865-4.165-4.165-4.165zM1.597 7.81h11.885l-1.058 3.645h-7.941l-2.885-3.645zM10.413 18.946l-5.106-6.45h6.815l-1.167 4.020 1 0.291 1.252-4.31h2.314l-5.107 6.45zM16.344 11.454h-2.836l1.059-3.645h4.663l-2.885 3.645zM20.305 10.413c-0.526 0.003-1.044-0.13-1.504-0.386l1.912-2.415c0.179-0.225 0.141-0.553-0.085-0.731-0.092-0.073-0.206-0.113-0.324-0.113h-3.081c0.288-1.701 1.9-2.847 3.601-2.56s2.847 1.9 2.56 3.601c-0.254 1.503-1.556 2.603-3.080 2.603z"></path>
</symbol>
<symbol id="icon-hot-meals" viewBox="0 0 32 32">
<path d="M31.915 22.237c-0.088-0.125-0.231-0.2-0.384-0.2h-6.39c0.923-0.735 1.541-1.998 1.526-3.219 0-0.633-0.145-1.256-0.42-1.82l0.812-0.913c0.897-1.009 0.852-2.547-0.102-3.502l-1.361-1.361 2.025-2.025c0.096-0.096 0.145-0.228 0.136-0.364s-0.077-0.26-0.185-0.342c-0.033-0.025-0.063-0.051-0.091-0.079-0.351-0.352-0.351-0.924 0-1.276s0.925-0.352 1.277 0c0.277 0.277 0.343 0.713 0.16 1.059-0.096 0.182-0.063 0.405 0.083 0.551s0.369 0.179 0.551 0.083c0.352-0.186 0.778-0.122 1.059 0.16 0.352 0.352 0.352 0.925-0 1.277-0.17 0.17-0.397 0.264-0.638 0.264s-0.467-0.094-0.638-0.264c-0.028-0.028-0.054-0.058-0.079-0.091-0.082-0.108-0.206-0.176-0.341-0.185s-0.268 0.040-0.364 0.136l-0.812 0.813c-0.183 0.183-0.183 0.48 0 0.663 0.091 0.091 0.212 0.137 0.331 0.137s0.24-0.046 0.331-0.137l0.487-0.487c0.313 0.229 0.689 0.353 1.084 0.353 0.492 0 0.954-0.191 1.301-0.539s0.539-0.81 0.539-1.301-0.191-0.954-0.539-1.301c-0.355-0.355-0.823-0.541-1.299-0.541-0.004 0-0.009 0-0.013 0 0.004-0.48-0.182-0.953-0.541-1.312-0.718-0.718-1.885-0.717-2.603 0-0.648 0.649-0.71 1.666-0.185 2.385l-1.716 1.715c-0.957-0.738-2.328-0.708-3.253 0.115l-0.394 0.351c-0.086-0.331-0.237-0.643-0.448-0.917l1.716-1.716c0.719 0.525 1.736 0.463 2.385-0.186 0.348-0.348 0.539-0.81 0.539-1.301s-0.191-0.954-0.539-1.301c-0.356-0.356-0.824-0.542-1.299-0.542-0.004 0-0.009 0-0.013 0 0.003-0.48-0.183-0.953-0.541-1.312-0.718-0.717-1.885-0.717-2.602 0-0.649 0.649-0.711 1.666-0.186 2.385l-1.716 1.716c-0.957-0.738-2.328-0.709-3.253 0.115l-2.465 2.189c-0.194 0.172-0.211 0.468-0.039 0.662s0.468 0.211 0.662 0.039l2.465-2.189c0.639-0.568 1.612-0.539 2.216 0.065l1.791 1.791c0.335 0.335 0.504 0.8 0.468 1.268-0.478 0.439-2.204 1.926-2.522 2.272-0.073-0.038-2.608-1.54-2.608-1.54-0.918-0.545-1.968-0.833-3.035-0.833h-2.506c-1.807 0-3.478 0.82-4.585 2.249-1.053 1.361-1.443 3.079-1.087 4.75-1.137 0.65-2.028 1.925-2.167 3.334h-1.431c-0.151 0-0.293 0.073-0.381 0.196s-0.111 0.281-0.062 0.424l0.567 1.664c0.249 0.73 0.934 1.22 1.705 1.22h1.028l2.327 2.357c0.549 0.556 1.313 0.875 2.095 0.875h16.554c0.782 0 1.546-0.319 2.095-0.875l2.327-2.357h0.937c0.753 0 1.434-0.475 1.692-1.183l0.618-1.691c0.053-0.144 0.032-0.304-0.056-0.43zM21.269 6.49c0.095-0.096 0.145-0.228 0.136-0.362s-0.075-0.259-0.183-0.341c-0.034-0.026-0.064-0.052-0.092-0.081-0.352-0.352-0.352-0.925 0-1.277s0.924-0.352 1.276-0c0.282 0.282 0.346 0.708 0.16 1.060-0.096 0.182-0.062 0.405 0.083 0.551s0.369 0.179 0.551 0.082c0.351-0.186 0.777-0.122 1.059 0.161 0.17 0.17 0.264 0.397 0.264 0.638s-0.094 0.468-0.264 0.638c-0.352 0.352-0.925 0.352-1.276 0-0.028-0.028-0.055-0.059-0.081-0.093-0.082-0.107-0.207-0.174-0.341-0.183s-0.267 0.041-0.362 0.136l-2.025 2.025-0.93-0.93 2.025-2.025zM18.816 14.478l3.472-3.088c0.638-0.568 1.612-0.539 2.216 0.065l1.791 1.791c0.604 0.604 0.633 1.577 0.065 2.216l-3.088 3.472c-1.11 1.313-3.356 1.427-4.589 0.134-1.232-1.176-1.234-3.422 0.134-4.59zM5.895 14.527c0.927-1.198 2.328-1.885 3.843-1.885h2.506c0.9 0 1.784 0.243 2.557 0.702 0 0 2.487 1.475 2.534 1.501-0.861 1.484-0.617 3.647 0.684 4.886 1.55 1.629 4.46 1.586 5.953-0.174l1.584-1.781c0.114 0.334 0.173 0.686 0.173 1.043 0.039 1.679-1.462 3.253-3.213 3.219h-11.314c0.455-0.409 1.177-0.845 2.192-0.845 0.259 0 0.469-0.21 0.469-0.469s-0.21-0.469-0.469-0.469c-1.071 0-1.888 0.376-2.471 0.804 0.321-1.085 1.134-2.057 2.138-2.373 0.244-0.086 0.373-0.353 0.287-0.597s-0.353-0.373-0.598-0.287c-1.202 0.421-2.097 1.331-2.6 2.634-0.718-1.353-2.219-2.337-3.879-2.328-0.462 0-0.908 0.072-1.327 0.205-0.229-1.339 0.108-2.698 0.95-3.785zM6.272 19.045c0.791 0 1.521 0.267 2.104 0.716l-2.082 2.082-2.101-2.101c0.579-0.437 1.299-0.697 2.079-0.697zM9.036 20.427c0.348 0.461 0.584 1.011 0.665 1.61h-2.275l1.61-1.61zM3.527 20.401l1.635 1.635h-2.32c0.083-0.61 0.326-1.169 0.684-1.635zM30.472 24.036c-0.124 0.339-0.45 0.567-0.811 0.567h-4.975c-0.259 0-0.469 0.21-0.469 0.469s0.21 0.469 0.469 0.469h2.72l-1.677 1.698c-0.374 0.379-0.895 0.597-1.428 0.597h-16.554c-0.533 0-1.053-0.217-1.428-0.597l-1.677-1.698h17.853c0.259 0 0.469-0.21 0.469-0.469s-0.21-0.469-0.469-0.469h-20.199c-0.37 0-0.698-0.235-0.818-0.585l-0.356-1.044h29.737l-0.388 1.061z"></path>
<path d="M5.359 6.417c-0.111 0.234-0.012 0.513 0.221 0.625 0.065 0.031 0.134 0.046 0.202 0.046 0.175 0 0.343-0.099 0.423-0.267l0.183-0.384c0.297-0.622 0.297-1.335 0-1.957l-0.183-0.384c-0.111-0.234-0.391-0.333-0.625-0.221s-0.333 0.391-0.221 0.625l0.183 0.384c0.174 0.365 0.174 0.784-0 1.15l-0.183 0.384z"></path>
<path d="M7.53 7.87c-0.111 0.234-0.012 0.513 0.221 0.625 0.065 0.031 0.134 0.046 0.202 0.046 0.175 0 0.343-0.099 0.423-0.267l0.183-0.383c0.297-0.622 0.297-1.335 0-1.957l-0.183-0.384c-0.111-0.234-0.391-0.333-0.625-0.221s-0.333 0.391-0.221 0.625l0.183 0.384c0.174 0.365 0.174 0.784-0 1.15l-0.183 0.384z"></path>
<path d="M10.154 5.815c-0.111 0.234-0.012 0.513 0.221 0.625 0.065 0.031 0.134 0.046 0.202 0.046 0.175 0 0.343-0.098 0.423-0.267l0.183-0.384c0.297-0.622 0.297-1.335 0-1.957l-0.183-0.384c-0.111-0.234-0.391-0.333-0.625-0.221s-0.333 0.391-0.221 0.625l0.183 0.384c0.174 0.365 0.174 0.784 0 1.15l-0.183 0.384z"></path>
</symbol>
<symbol id="icon-main-dishes" viewBox="0 0 32 32">
<path d="M5.508 28.128c1.31 0.473 2.692 0.712 4.085 0.706 1.52-0.005 3.029-0.265 4.464-0.769 2.884-1.003 5.278-2.869 6.742-5.256 1.484-2.418 1.838-5.080 0.998-7.495-0.016-0.046-0.035-0.091-0.056-0.135 0.211 0.149 0.452 0.25 0.706 0.294s0.515 0.032 0.764-0.036l7.936-3.851c0.179-0.086 0.34-0.207 0.472-0.356s0.233-0.322 0.298-0.511c0.064-0.188 0.091-0.387 0.077-0.586s-0.066-0.392-0.155-0.57l-0.117-0.234c-0.173-0.347-0.473-0.613-0.839-0.743s-0.767-0.113-1.12 0.047l-7.474 3.412c-0.372 0.103-0.701 0.326-0.934 0.634s-0.359 0.684-0.358 1.071c-0 0.198 0.034 0.395 0.1 0.582l-0.147 0.098c-1.962-0.981-6.72-0.19-11.166 1.356-0.261 0.091-0.522 0.184-0.781 0.281-0.491-1.82 0.78-3.145 0.849-3.215l-0.708-0.706c-0.485 0.524-0.847 1.149-1.061 1.829-0.253 0.797-0.26 1.652-0.020 2.454-0.8 0.319-1.569 0.657-2.296 1.008-0.403-1.498-0.439-3.043-0.384-4.16 0.011-0.225-0.024-0.451-0.101-0.663s-0.197-0.406-0.35-0.571c-0.154-0.165-0.339-0.298-0.544-0.391s-0.428-0.143-0.653-0.149c-0.226-0.006-0.45 0.034-0.66 0.116s-0.402 0.206-0.563 0.363c-0.162 0.157-0.29 0.345-0.378 0.553s-0.134 0.431-0.134 0.657v3.536c-0 0.072-0.029 0.14-0.079 0.191s-0.119 0.079-0.191 0.079c-0.167-0-0.333 0.033-0.488 0.097s-0.295 0.158-0.413 0.277c-0.118 0.119-0.212 0.26-0.275 0.415s-0.096 0.321-0.095 0.488c0.022 0.811 0.167 1.615 0.429 2.383-0.765 0.819-1.039 1.561-0.813 2.21 0.84 2.415 2.77 4.282 5.434 5.257zM13.728 27.121c-2.666 0.927-5.463 0.952-7.876 0.068-1.783-0.653-3.194-1.744-4.1-3.146 0.523 0.102 1.055 0.15 1.587 0.143 0.306 0 0.633-0.012 0.981-0.036 1.724-0.118 3.799-0.529 5.976-1.176 0.044 0.007 1.236-0.384 1.789-0.576 1.262-0.437 2.5-0.938 3.71-1.503l0.025-0.012c1.308-0.616 2.479-1.27 3.441-1.93 0.861-0.59 1.51-1.149 1.946-1.676 0.376 3.993-2.674 8.172-7.48 9.844zM18.933 17.058c-0.105 0.896-0.281 1.081-0.288 1.088l0.010 0.010c-0.414 0.282-0.868 0.563-1.356 0.84 0.326-0.646 0.542-1.342 0.638-2.059 0.017-0.121 0.076-0.232 0.168-0.313s0.21-0.125 0.332-0.125c0.071-0 0.14 0.015 0.205 0.044s0.122 0.071 0.169 0.124c0.047 0.053 0.082 0.115 0.103 0.182s0.028 0.138 0.020 0.208v-0zM30.177 9.544c0.118-0.053 0.251-0.058 0.373-0.015s0.222 0.132 0.279 0.248l0.117 0.234c0.030 0.060 0.047 0.124 0.052 0.191s-0.005 0.133-0.026 0.196c-0.022 0.063-0.056 0.121-0.1 0.17s-0.098 0.090-0.158 0.118l-6.215 3.027c-0.005-0.247-0.063-0.491-0.169-0.714s-0.258-0.422-0.447-0.582l6.295-2.874zM22.749 13c0.156-0 0.309 0.049 0.436 0.14s0.223 0.219 0.273 0.368c0.050 0.148 0.053 0.308 0.008 0.458s-0.136 0.282-0.26 0.377l-0.275 0.134c-0.089 0.023-0.182 0.029-0.273 0.018l0.117-0.078c0.055-0.036 0.103-0.083 0.14-0.137s0.063-0.116 0.076-0.181c0.013-0.065 0.014-0.131 0.001-0.196s-0.038-0.127-0.075-0.182c-0.037-0.055-0.084-0.102-0.139-0.139s-0.117-0.062-0.181-0.075c-0.065-0.013-0.132-0.012-0.196 0.001s-0.126 0.039-0.181 0.076l-0.222 0.148c0.005-0.196 0.086-0.381 0.226-0.518s0.328-0.213 0.523-0.214zM9.114 18.32l0.768-0.64c-0.182-0.216-0.345-0.447-0.488-0.691 0.239-0.088 0.479-0.174 0.719-0.258 2.734-0.951 5.4-1.554 7.505-1.699 0.98-0.067 1.805-0.028 2.388 0.113 0.474 0.115 0.774 0.291 0.846 0.497s-0.054 0.531-0.354 0.915c-0.174 0.217-0.364 0.419-0.571 0.606 0.042-0.393-0.072-0.786-0.318-1.095s-0.603-0.509-0.996-0.556c-0.392-0.047-0.787 0.062-1.1 0.303s-0.517 0.597-0.569 0.988c-0.254 1.869-1.359 2.959-1.667 3.23-1.149 0.532-2.324 1.006-3.521 1.42-0.51 0.177-1.017 0.343-1.52 0.495-1.975-0.381-3.372-1.575-4.154-3.553 0.746-0.364 1.54-0.713 2.368-1.044 0.189 0.344 0.412 0.668 0.664 0.968zM1.536 18.080c0.025-0.025 0.055-0.046 0.088-0.059s0.068-0.021 0.104-0.021c0.337-0 0.66-0.134 0.898-0.372s0.372-0.561 0.373-0.898v-3.536c0-0.184 0.073-0.36 0.203-0.49s0.306-0.203 0.49-0.203c0.094 0 0.187 0.019 0.274 0.056s0.164 0.091 0.229 0.16c0.065 0.068 0.115 0.149 0.148 0.237s0.047 0.182 0.042 0.276c-0.072 1.453 0.003 3.59 0.763 5.521 0.438 1.113 1.057 2.028 1.84 2.721 0.446 0.393 0.948 0.718 1.49 0.964-1.144 0.296-2.306 0.512-3.479 0.648l-0.418-0.077c-1.117-0.186-1.965-0.892-2.521-2.097-0.371-0.832-0.576-1.728-0.602-2.638-0-0.035 0.006-0.071 0.020-0.104s0.033-0.063 0.058-0.088zM1.018 22.542c-0.069-0.199 0.045-0.502 0.312-0.858 0.295 0.561 0.699 1.057 1.187 1.461-0.22-0.021-0.438-0.056-0.653-0.106-0.474-0.115-0.774-0.291-0.846-0.497l-0-0z"></path>
<path d="M4.5 6.5c-0.297 0-0.587 0.088-0.833 0.253s-0.439 0.399-0.552 0.673c-0.114 0.274-0.143 0.576-0.085 0.867s0.201 0.558 0.411 0.768c0.21 0.21 0.477 0.353 0.768 0.411s0.593 0.028 0.867-0.085c0.274-0.114 0.508-0.306 0.673-0.552s0.253-0.537 0.253-0.833c-0-0.398-0.159-0.779-0.44-1.060s-0.662-0.439-1.060-0.44zM4.5 8.5c-0.099 0-0.196-0.029-0.278-0.084s-0.146-0.133-0.184-0.224c-0.038-0.091-0.048-0.192-0.028-0.289s0.067-0.186 0.137-0.256c0.070-0.070 0.159-0.118 0.256-0.137s0.198-0.009 0.289 0.028c0.091 0.038 0.169 0.102 0.224 0.184s0.084 0.179 0.084 0.278c-0 0.133-0.053 0.26-0.147 0.353s-0.221 0.146-0.353 0.147z"></path>
<path d="M9.5 4.5c0-0.297-0.088-0.587-0.253-0.833s-0.399-0.439-0.673-0.552c-0.274-0.114-0.576-0.143-0.867-0.085s-0.558 0.201-0.768 0.411c-0.21 0.21-0.353 0.477-0.41 0.768s-0.028 0.593 0.085 0.867c0.114 0.274 0.306 0.508 0.552 0.673s0.537 0.253 0.833 0.253c0.398-0 0.779-0.159 1.060-0.44s0.439-0.662 0.44-1.060zM7.5 4.5c0-0.099 0.029-0.196 0.084-0.278s0.133-0.146 0.224-0.184c0.091-0.038 0.192-0.048 0.289-0.028s0.186 0.067 0.256 0.137c0.070 0.070 0.118 0.159 0.137 0.256s0.009 0.198-0.028 0.289c-0.038 0.091-0.102 0.169-0.184 0.224s-0.179 0.084-0.278 0.084c-0.133-0-0.26-0.053-0.353-0.147s-0.146-0.221-0.147-0.353z"></path>
<path d="M6.5 10h1v1h-1v-1z"></path>
<path d="M6 14.5h1v1h-1v-1z"></path>
<path d="M9 19h1v1h-1v-1z"></path>
<path d="M1 9.5h1v1h-1v-1z"></path>
<path d="M5.223 22.916l0.555-0.832c-1.222-0.815-1.276-1.565-1.277-1.597 0 0.008 0 0.013 0 0.013h-1c0 0.13 0.048 1.3 1.723 2.416z"></path>
<path d="M10.156 7.731c0.207-0.312 0.44-0.606 0.698-0.877l-0.708-0.707c-0.067 0.067-1.646 1.666-1.646 3.354h1c0-0.51 0.227-1.122 0.656-1.769z"></path>
</symbol>
</defs>
</svg>
