<svg width="100" height="108" viewBox="0 0 100 108" fill="none" xmlns="http://www.w3.org/2000/svg">
<g filter="url(#filter0_d)">
<path d="M26.667 43.334H23.3337V46.6673H26.667V43.334Z" fill="black"/>
<path d="M34.9998 40.0006H31.6665V43.3339H34.9998V40.0006Z" fill="black"/>
<path d="M44.9997 43.334H41.6664V46.6673H44.9997V43.334Z" fill="black"/>
<path d="M54.9997 40.0006H51.6664V43.3339H54.9997V40.0006Z" fill="black"/>
<path d="M66.6668 40.0006H63.3335V43.3339H66.6668V40.0006Z" fill="black"/>
<path d="M74.9996 43.334H71.6664V46.6673H74.9996V43.334Z" fill="black"/>
<path d="M54.9997 10.001H51.6664V13.3343H54.9997V10.001Z" fill="white"/>
<path d="M41.6669 23.3341H38.3336V26.6674H41.6669V23.3341Z" fill="white"/>
<path d="M49.9997 26.6675H46.6664V30.0008H49.9997V26.6675Z" fill="white"/>
<path d="M64.9997 23.3341H61.6664V26.6674H64.9997V23.3341Z" fill="white"/>
<path d="M84.0649 50.0371C87.7771 45.9617 87.4827 39.6487 83.4074 35.9364C81.5643 34.2575 79.1597 33.3292 76.6666 33.3339H72.4333C76.1243 29.2382 75.7962 22.9257 71.7004 19.2345C69.8623 17.5781 67.4744 16.6631 65.0001 16.6675H64.8851C64.0401 10.0077 58.3799 5.01216 51.6669 5.00091H49.3819C48.1346 5.04028 47.0267 4.20946 46.7152 3.00093C46.6494 2.67093 46.6494 2.33094 46.7152 2.00094C46.8013 1.5047 46.6607 0.995952 46.3319 0.614289C45.9986 0.225543 45.5123 0.00158713 45.0003 0.000962139C40.7197 -0.0586206 36.8912 2.65427 35.5287 6.71256C34.4779 9.81128 34.9922 13.2271 36.9087 15.8791C37.1116 16.1539 37.3285 16.4183 37.5587 16.6708H35.0004C29.4869 16.6614 25.0094 21.1232 25.0001 26.6369C24.9959 29.1113 25.9107 31.4992 27.5671 33.3373H23.3338C17.8212 33.3267 13.3437 37.787 13.3331 43.2997C13.3283 45.7928 14.2566 48.1973 15.9356 50.0404C10.7158 50.4234 6.6742 54.7664 6.66733 60.0003C6.66649 63.283 8.29669 66.3517 11.0173 68.1886L21.7605 98.8833C21.9943 99.552 22.6253 99.9999 23.3338 99.9999H76.6666C77.3751 99.9999 78.0062 99.552 78.2399 98.8833L88.9831 68.1886C91.7038 66.3517 93.3339 63.283 93.3331 60.0003C93.3281 54.7652 89.2861 50.42 84.0649 50.0371ZM38.7003 7.75088C39.4387 5.62257 41.2266 4.02842 43.4253 3.53759C43.4253 3.57092 43.437 3.60426 43.4419 3.63759C44.0499 6.4184 46.5357 8.384 49.3819 8.33421H51.6669C56.5445 8.34025 60.7087 11.8592 61.5284 16.6675H45.0003C42.8659 16.6631 40.8616 15.6418 39.6037 13.9175C38.3243 12.1285 37.9878 9.83148 38.7003 7.75088ZM35.0004 20.0008H65.0001C68.6819 20.0008 71.6667 22.9855 71.6667 26.6674C71.6667 30.3492 68.6819 33.3339 65.0001 33.3339H35.0004C31.3185 33.3339 28.3338 30.3492 28.3338 26.6674C28.3338 22.9855 31.3185 20.0008 35.0004 20.0008ZM23.3338 36.6672H76.6666C80.3484 36.6672 83.3332 39.652 83.3332 43.3338C83.3332 47.0157 80.3484 50.0004 76.6666 50.0004H23.3338C19.652 50.0004 16.6672 47.0157 16.6672 43.3338C16.6672 39.652 19.652 36.6672 23.3338 36.6672ZM24.5171 96.6666L13.5606 65.3619C14.5035 64.4386 15.7441 63.8809 17.0606 63.7886C18.6695 63.6828 20.2466 64.2707 21.3938 65.4036L21.7805 65.7903L26.3988 96.6666H24.5171ZM29.7704 96.6666L25.1038 65.5836L26.0655 64.6219C28.2388 62.4551 31.7554 62.4551 33.9287 64.6219L35.0337 65.7236L36.5804 96.6666H29.7704ZM48.3336 96.6666H39.9203L38.3687 65.6553L39.402 64.6219C41.5753 62.4551 45.0919 62.4551 47.2652 64.6219L48.3336 65.6903V96.6666ZM60.0801 96.6666H51.6669V65.6903L52.7352 64.6219C54.9085 62.4551 58.4251 62.4551 60.5984 64.6219L61.6318 65.6553L60.0801 96.6666ZM63.4201 96.6666L64.9667 65.7236L66.0684 64.6219C68.2417 62.4551 71.7583 62.4551 73.9316 64.6219L74.8933 65.5836L70.23 96.6666H63.4201ZM75.4833 96.6666H73.6016L78.2333 65.7903L78.6199 65.4036C80.7741 63.2474 84.263 63.2288 86.4398 65.3619L75.4833 96.6666ZM89.1031 63.322L89.0831 63.3036C88.7386 62.9353 88.3632 62.597 87.9615 62.292C87.8982 62.2436 87.8365 62.1936 87.7732 62.147C87.3805 61.863 86.9653 61.6116 86.5315 61.3953C86.4532 61.3553 86.3748 61.3186 86.2932 61.2803C85.8507 61.0759 85.3917 60.9087 84.9215 60.7803C84.8549 60.7603 84.7865 60.7487 84.7182 60.732C84.2144 60.6012 83.7003 60.5147 83.1815 60.4737C82.9699 60.4587 82.7599 60.452 82.5499 60.452C82.3399 60.452 82.1482 60.492 81.9466 60.5053C81.6832 60.5237 81.4216 60.537 81.1616 60.577C80.8699 60.6237 80.5882 60.7003 80.3032 60.7753C80.0482 60.842 79.7932 60.897 79.5449 60.9853C79.2335 61.1062 78.9291 61.2447 78.6333 61.4003C78.4366 61.497 78.2333 61.567 78.0449 61.6836C77.5599 61.967 77.1029 62.2957 76.6799 62.6653L76.2883 62.2736C72.8127 58.8072 67.1873 58.8072 63.7117 62.2736L63.3334 62.6436L62.9551 62.2653C59.4795 58.7989 53.8541 58.7989 50.3785 62.2653L50.0002 62.6436L49.6219 62.2653C46.1463 58.7989 40.5209 58.7989 37.0453 62.2653L36.667 62.6436L36.2887 62.2653C32.8131 58.7989 27.1877 58.7989 23.7122 62.2653L23.3205 62.657C21.133 60.7087 18.1164 59.983 15.2822 60.7237C15.2139 60.7403 15.1456 60.752 15.0789 60.772C14.6087 60.9003 14.1498 61.0676 13.7073 61.272C13.6256 61.3103 13.5406 61.347 13.4689 61.387C13.0352 61.6032 12.62 61.8547 12.2273 62.1386C12.1639 62.1853 12.1023 62.2353 12.0389 62.2836C11.6373 62.5886 11.2621 62.927 10.9173 63.2953L10.8973 63.3136C10.3087 62.3086 9.99917 61.1649 10.0006 60.0003C10.0006 56.3185 12.9854 53.3337 16.6672 53.3337H83.3332C87.015 53.3337 89.9998 56.3185 89.9998 60.0003C90.0027 61.1676 89.6931 62.3145 89.1031 63.322Z" fill="black"/>
</g>
<defs>
<filter id="filter0_d" x="-4" y="0" width="108" height="108" filterUnits="userSpaceOnUse" color-interpolation-filters="sRGB">
<feFlood flood-opacity="0" result="BackgroundImageFix"/>
<feColorMatrix in="SourceAlpha" type="matrix" values="0 0 0 0 0 0 0 0 0 0 0 0 0 0 0 0 0 0 127 0"/>
<feOffset dy="4"/>
<feGaussianBlur stdDeviation="2"/>
<feColorMatrix type="matrix" values="0 0 0 0 0 0 0 0 0 0 0 0 0 0 0 0 0 0 0.25 0"/>
<feBlend mode="normal" in2="BackgroundImageFix" result="effect1_dropShadow"/>
<feBlend mode="normal" in="SourceGraphic" in2="effect1_dropShadow" result="shape"/>
</filter>
</defs>
</svg>
