<svg width="100" height="100" viewBox="0 0 100 100" fill="none" xmlns="http://www.w3.org/2000/svg">
<path d="M75.8332 10C69.12 10.0112 63.4598 15.0069 62.6148 21.6667H58.4282L63.7515 3.33333H69.1665V0H62.4998C61.7586 0.000208333 61.1067 0.49 60.8998 1.20167L54.9582 21.6667H12.4998C11.5794 21.6665 10.8329 22.4125 10.8327 23.3329C10.8327 23.7087 10.9596 24.0735 11.1932 24.3683L42.4998 63.9133V96.6667H29.1665V100H59.1665V96.6667H45.8332V63.9133L68.9532 34.71C71.0194 35.9906 73.4023 36.6683 75.8332 36.6667C83.1969 36.6667 89.1665 30.6971 89.1665 23.3333C89.1665 15.9696 83.1969 10 75.8332 10ZM15.9448 25H53.9898L50.6032 36.6667H25.1815L15.9448 25ZM44.1665 60.6483L27.8198 40H49.6365L45.8998 52.8683L49.0998 53.7983L53.1065 40H60.5132L44.1665 60.6483ZM63.1515 36.6667H54.0732L57.4615 25H72.3882L63.1515 36.6667ZM75.8332 33.3333C74.1492 33.3421 72.4915 32.9169 71.0198 32.0983L77.1398 24.3683C77.7115 23.6469 77.59 22.5985 76.8686 22.0269C76.574 21.7935 76.2092 21.6665 75.8332 21.6667H65.9715C66.8919 16.221 72.0527 12.5527 77.4984 13.4731C82.944 14.3935 86.6123 19.5544 85.6919 25C84.8786 29.8108 80.7123 33.3325 75.8332 33.3333Z" fill="black"/>
</svg>
