<svg width="100" height="100" viewBox="0 0 100 100" fill="none" xmlns="http://www.w3.org/2000/svg">
<g clip-path="url(#clip0)">
<path d="M17.2097 87.8996C21.3022 89.3781 25.6228 90.1251 29.9741 90.1067C34.7257 90.0904 39.4409 89.2784 43.9241 87.7043C52.9361 84.5698 60.4189 78.7368 64.9939 71.2799C69.6308 63.7227 70.7388 55.4047 68.114 47.8582C68.0631 47.7145 68.0044 47.5737 67.9382 47.4364C68.5969 47.9026 69.3509 48.2168 70.1457 48.3562C70.9406 48.4955 71.7565 48.4566 72.5345 48.2422L97.3357 36.2078C97.8961 35.9386 98.3973 35.5605 98.8102 35.0956C99.2231 34.6307 99.5394 34.0883 99.7406 33.5C99.9419 32.9118 100.024 32.2893 99.9825 31.6689C99.9408 31.0486 99.7762 30.4427 99.4982 29.8866L99.1321 29.1547C98.5922 28.0704 97.6529 27.2377 96.5117 26.8317C95.3704 26.4257 94.1162 26.4781 93.0128 26.9778L69.6572 37.6418C68.4934 37.9647 67.4679 38.6609 66.7383 39.6233C66.0087 40.5857 65.6153 41.7611 65.6187 42.9688C65.6184 43.5888 65.7241 44.2043 65.9312 44.7887L65.4716 45.0951C59.3405 42.0287 44.471 44.5008 30.578 49.3334C29.7618 49.6173 28.948 49.9099 28.1366 50.2112C26.6013 44.5231 30.5745 40.383 30.7907 40.1637L28.5771 37.9582C27.063 39.5956 25.9305 41.548 25.2609 43.6752C24.4703 46.1669 24.4484 48.8389 25.1982 51.3432C22.6982 52.3414 20.2958 53.3967 18.0226 54.4934C16.7618 49.8133 16.6499 44.9844 16.8216 41.495C16.8553 40.7907 16.7479 40.0867 16.5057 39.4245C16.2635 38.7623 15.8914 38.1552 15.4113 37.6388C14.9312 37.1224 14.3527 36.7071 13.7099 36.4174C13.0671 36.1277 12.3728 35.9694 11.6679 35.9518C10.963 35.9342 10.2617 36.0576 9.60521 36.3148C8.9487 36.572 8.3502 36.9579 7.84488 37.4496C7.33956 37.9414 6.93761 38.5292 6.66264 39.1784C6.38767 39.8277 6.24523 40.5254 6.24368 41.2305V52.2813C6.24321 52.5051 6.15403 52.7196 5.99569 52.8777C5.83735 53.0359 5.62275 53.1248 5.39895 53.125C4.87568 53.1248 4.35754 53.2281 3.87435 53.429C3.39116 53.6298 2.95245 53.9242 2.58348 54.2953C2.21451 54.6663 1.92256 55.1066 1.72444 55.5909C1.52631 56.0753 1.42591 56.594 1.42903 57.1172C1.4983 59.6524 1.95007 62.1626 2.76907 64.5629C0.378248 67.1225 -0.47683 69.4426 0.228052 71.4698C2.85325 79.0162 8.88411 84.8512 17.2097 87.8996ZM42.8976 84.7518C34.5652 87.65 25.8241 87.726 18.2841 84.9653C12.713 82.9254 8.30364 79.5149 5.47161 75.1342C7.1054 75.454 8.76792 75.6036 10.4325 75.5807C11.3897 75.5807 12.4118 75.5435 13.499 75.469C18.8863 75.0994 25.3698 73.8141 32.1741 71.794C32.3109 71.8159 36.0366 70.5953 37.7652 69.9942C41.7078 68.6297 45.5772 67.0619 49.3577 65.2971L49.4374 65.26C53.5251 63.3364 57.1831 61.2905 60.1909 59.2282C62.8821 57.3831 64.9092 55.6371 66.2722 53.9901C67.4478 66.468 57.9157 79.5282 42.8976 84.7518ZM59.1646 53.3065C58.8353 56.1073 58.2868 56.6842 58.2638 56.7075L58.2941 56.7377C57.0005 57.6186 55.5818 58.4971 54.0558 59.3641C55.0754 57.3459 55.7489 55.1709 56.0484 52.9297C56.0999 52.5513 56.2867 52.2043 56.5743 51.953C56.8619 51.7017 57.2307 51.563 57.6126 51.5625C57.8332 51.5625 58.0513 51.6091 58.2525 51.6994C58.4538 51.7897 58.6337 51.9215 58.7803 52.0863C58.9269 52.2511 59.037 52.445 59.1033 52.6554C59.1696 52.8658 59.1906 53.0878 59.165 53.3069L59.1646 53.3065ZM94.3007 29.8242C94.6682 29.6586 95.0857 29.6417 95.4654 29.7773C95.8451 29.9128 96.1575 30.1902 96.337 30.5512L96.703 31.283C96.7961 31.469 96.851 31.6717 96.8646 31.8793C96.8783 32.0868 96.8504 32.2949 96.7826 32.4915C96.7147 32.6881 96.6083 32.8692 96.4696 33.0241C96.3309 33.179 96.1627 33.3047 95.9747 33.3938L76.5534 42.8545C76.5376 42.0819 76.3579 41.3215 76.0261 40.6236C75.6944 39.9257 75.2181 39.3062 74.629 38.8061L94.3007 29.8242ZM71.0874 40.625C71.5764 40.6244 72.0532 40.777 72.4511 41.0612C72.8489 41.3454 73.1478 41.7471 73.3057 42.2098C73.4637 42.6725 73.4728 43.1731 73.3318 43.6412C73.1908 44.1094 72.9067 44.5216 72.5195 44.8202L71.6601 45.2391C71.3821 45.3124 71.0926 45.3311 70.8075 45.2942L71.1736 45.0502C71.3465 44.9374 71.4953 44.7914 71.6115 44.6207C71.7277 44.45 71.8088 44.2579 71.8503 44.0556C71.8918 43.8534 71.8928 43.6449 71.8532 43.4422C71.8137 43.2395 71.7343 43.0467 71.6198 42.8749C71.5052 42.7031 71.3578 42.5557 71.1859 42.4412C71.0141 42.3268 70.8212 42.2475 70.6185 42.208C70.4159 42.1685 70.2074 42.1696 70.0051 42.2112C69.8028 42.2527 69.6108 42.334 69.4402 42.4502L68.7472 42.9121C68.7623 42.3011 69.0154 41.7202 69.4525 41.293C69.8896 40.8658 70.4762 40.6261 71.0874 40.625ZM28.4808 57.2504L30.8816 55.2498C30.3142 54.5739 29.8046 53.8515 29.3581 53.0903C30.1036 52.8151 30.8542 52.5459 31.6042 52.2848C40.1491 49.3127 48.4792 47.4272 55.0577 46.976C58.1189 46.7662 60.6991 46.8885 62.5187 47.3301C63.9993 47.6891 64.9378 48.241 65.1614 48.8842C65.3851 49.5274 64.9915 50.5424 64.0536 51.7428C63.5108 52.4205 62.9146 53.0535 62.2706 53.636C62.4025 52.4087 62.0458 51.1789 61.2776 50.2127C60.5094 49.2465 59.3915 48.6218 58.1661 48.4738C56.9407 48.3258 55.7063 48.6664 54.7301 49.4218C53.7539 50.1773 53.1146 51.2868 52.9505 52.5102C52.1568 58.3522 48.7032 61.7567 47.74 62.6043C44.1489 64.267 40.4767 65.7483 36.737 67.0426C35.143 67.597 33.56 68.1128 31.9878 68.5899C25.8146 67.3985 21.4497 63.668 19.0056 57.4868C21.3361 56.35 23.8181 55.2571 26.4046 54.225C26.9961 55.299 27.6915 56.3123 28.4808 57.2504ZM4.79836 56.4996C4.87685 56.4202 4.97039 56.3572 5.07351 56.3143C5.17664 56.2715 5.28727 56.2496 5.39895 56.25C6.45142 56.2488 7.46045 55.8302 8.20466 55.086C8.94887 54.3418 9.36749 53.3328 9.36868 52.2803V41.2305C9.36904 40.6556 9.59757 40.1044 10.0041 39.6979C10.4106 39.2914 10.9618 39.0629 11.5366 39.0625C11.8305 39.0627 12.1214 39.1226 12.3914 39.2386C12.6614 39.3546 12.905 39.5243 13.1074 39.7374C13.3099 39.9505 13.4668 40.2026 13.5688 40.4782C13.6708 40.7538 13.7157 41.0473 13.7007 41.3409C13.4773 45.8805 13.7095 52.559 16.0849 58.5951C17.4531 62.0717 19.3882 64.9327 21.8363 67.0977C23.2304 68.3272 24.7995 69.3427 26.4921 70.111C22.9186 71.0356 19.2854 71.7126 15.6187 72.1369L14.3134 71.8963C10.8236 71.3147 8.17317 69.1098 6.43567 65.3432C5.27572 62.7441 4.63658 59.9427 4.55442 57.0977C4.55333 56.9868 4.57434 56.8768 4.61622 56.7741C4.65811 56.6714 4.72003 56.5781 4.79836 56.4996ZM3.17981 70.4432C2.9636 69.8219 3.32141 68.8743 4.15481 67.7621C5.07721 69.5144 6.33768 71.0666 7.8634 72.3289C7.17643 72.2648 6.49464 72.1539 5.82278 71.9969C4.3429 71.6379 3.40461 71.0866 3.1804 70.444V70.443L3.17981 70.4432Z" fill="black"/>
<path d="M14.0625 20.3125C13.1354 20.3125 12.2291 20.5874 11.4583 21.1025C10.6874 21.6176 10.0866 22.3496 9.73182 23.2062C9.37703 24.0627 9.2842 25.0052 9.46507 25.9145C9.64594 26.8238 10.0924 27.659 10.7479 28.3146C11.4035 28.9701 12.2387 29.4166 13.148 29.5974C14.0573 29.7783 14.9998 29.6855 15.8563 29.3307C16.7129 28.9759 17.4449 28.3751 17.96 27.6042C18.4751 26.8334 18.75 25.9271 18.75 25C18.7486 23.7572 18.2543 22.5658 17.3755 21.687C16.4967 20.8082 15.3053 20.3139 14.0625 20.3125ZM14.0625 26.5625C13.7535 26.5625 13.4514 26.4709 13.1944 26.2992C12.9375 26.1275 12.7372 25.8834 12.6189 25.5979C12.5007 25.3124 12.4697 24.9983 12.53 24.6952C12.5903 24.3921 12.7391 24.1137 12.9576 23.8951C13.1762 23.6766 13.4546 23.5278 13.7577 23.4675C14.0608 23.4072 14.3749 23.4382 14.6604 23.5564C14.946 23.6747 15.19 23.875 15.3617 24.1319C15.5334 24.3889 15.625 24.691 15.625 25C15.6245 25.4143 15.4598 25.8114 15.1668 26.1043C14.8739 26.3973 14.4768 26.562 14.0625 26.5625Z" fill="black"/>
<path d="M29.6875 14.0625C29.6875 13.1354 29.4126 12.2291 28.8975 11.4583C28.3824 10.6874 27.6504 10.0866 26.7938 9.73182C25.9373 9.37703 24.9948 9.2842 24.0855 9.46507C23.1762 9.64594 22.341 10.0924 21.6854 10.7479C21.0299 11.4035 20.5834 12.2387 20.4026 13.148C20.2217 14.0573 20.3145 14.9998 20.6693 15.8563C21.0241 16.7129 21.6249 17.4449 22.3958 17.96C23.1666 18.4751 24.0729 18.75 25 18.75C26.2428 18.7486 27.4342 18.2543 28.313 17.3755C29.1918 16.4967 29.6861 15.3053 29.6875 14.0625ZM23.4375 14.0625C23.4375 13.7535 23.5291 13.4514 23.7008 13.1944C23.8725 12.9375 24.1165 12.7372 24.4021 12.6189C24.6876 12.5007 25.0017 12.4697 25.3048 12.53C25.6079 12.5903 25.8863 12.7391 26.1049 12.9576C26.3234 13.1762 26.4722 13.4546 26.5325 13.7577C26.5928 14.0608 26.5618 14.3749 26.4436 14.6604C26.3253 14.946 26.125 15.19 25.8681 15.3617C25.6111 15.5334 25.309 15.625 25 15.625C24.5857 15.6245 24.1886 15.4598 23.8957 15.1668C23.6027 14.8739 23.438 14.4768 23.4375 14.0625Z" fill="black"/>
<path d="M20.3125 31.25H23.4375V34.375H20.3125V31.25Z" fill="black"/>
<path d="M18.75 45.3125H21.875V48.4375H18.75V45.3125Z" fill="black"/>
<path d="M28.125 59.375H31.25V62.5H28.125V59.375Z" fill="black"/>
<path d="M3.125 29.6875H6.25V32.8125H3.125V29.6875Z" fill="black"/>
<path d="M16.3209 71.6124L18.0543 69.0124C14.2355 66.4665 14.067 64.121 14.0625 64.0223C14.0639 64.0487 14.0625 64.0624 14.0625 64.0624H10.9375C10.9375 64.4678 11.0885 68.1249 16.3209 71.6124Z" fill="black"/>
<path d="M31.7361 24.1584C32.3816 23.182 33.1119 22.2644 33.9188 21.4164L31.7076 19.208C31.4977 19.4182 26.5625 24.4145 26.5625 29.6879H29.6875C29.6875 28.0945 30.3959 26.1824 31.7361 24.1584Z" fill="black"/>
</g>
<defs>
<clipPath id="clip0">
<rect width="100" height="100" fill="white"/>
</clipPath>
</defs>
</svg>
