<svg width="100" height="100" viewBox="0 0 100 100" fill="none" xmlns="http://www.w3.org/2000/svg">
<path d="M21.9717 38.1111C22.5766 37.574 22.6314 36.648 22.0943 36.0432C21.5572 35.4381 20.6313 35.3834 20.0264 35.9205C19.4215 36.4578 19.3666 37.3836 19.9037 37.9887C20.4408 38.5936 21.3668 38.6484 21.9717 38.1111ZM14.5812 44.1154C14.8193 43.3422 14.3855 42.5225 13.6125 42.2844C12.8393 42.0461 12.0195 42.4799 11.7814 43.2531C11.5434 44.0264 11.9771 44.8461 12.7502 45.0842C13.5232 45.3225 14.3432 44.8887 14.5812 44.1154ZM69.6789 40.1924C68.884 40.343 68.3617 41.1096 68.5125 41.9045C68.6633 42.6994 69.4297 43.2215 70.2244 43.0711C71.0193 42.9205 71.5416 42.1539 71.3908 41.359C71.2402 40.5641 70.4738 40.0418 69.6789 40.1924ZM26.9451 37.5158C27.55 36.9787 27.6049 36.0529 27.0678 35.4478C26.5305 34.843 25.6047 34.7881 24.9998 35.3254C24.3949 35.8625 24.34 36.7883 24.8771 37.3934C25.4143 37.9982 26.3402 38.0531 26.9451 37.5158ZM29.8748 31.0922C30.4797 30.5551 30.5346 29.6293 29.9975 29.0242C29.4602 28.4193 28.5344 28.3645 27.9295 28.9018C27.3246 29.4389 27.2697 30.3646 27.8068 30.9697C28.3441 31.5746 29.2699 31.6295 29.8748 31.0922ZM23.3852 31.7914C23.99 31.2541 24.0449 30.3283 23.5078 29.7234C22.9705 29.1184 22.0447 29.0635 21.4398 29.6008C20.835 30.1379 20.7801 31.0639 21.3172 31.6687C21.8543 32.2738 22.7803 32.3285 23.3852 31.7914ZM76.0859 68.3348C75.5139 68.9068 75.5139 69.8344 76.0859 70.4062C76.658 70.9783 77.5855 70.9783 78.1576 70.4062C78.7297 69.8342 78.7297 68.9066 78.1576 68.3348C77.5854 67.7627 76.658 67.7627 76.0859 68.3348ZM83.2908 49.4213C83.4828 48.6354 83.0014 47.8426 82.2154 47.6508C81.4295 47.4588 80.6367 47.9402 80.4449 48.7262C80.2529 49.5121 80.7344 50.3049 81.5203 50.4967C82.3061 50.6887 83.0988 50.2072 83.2908 49.4213ZM79.7074 57.9188C78.9215 57.727 78.1287 58.2082 77.9369 58.9943C77.7449 59.7801 78.2264 60.5728 79.0123 60.7648C79.7982 60.9566 80.591 60.4754 80.7828 59.6893C80.9748 58.9035 80.4934 58.1107 79.7074 57.9188ZM84.6324 53.7141C83.8465 53.5221 83.0537 54.0035 82.8619 54.7895C82.6701 55.5754 83.1514 56.368 83.9373 56.56C84.7232 56.7518 85.516 56.2705 85.7078 55.4844C85.8998 54.6986 85.4184 53.9059 84.6324 53.7141ZM85.3555 14.6445C75.9117 5.20098 63.3555 0 50 0C36.6445 0 24.0885 5.20098 14.6445 14.6445C5.20098 24.0883 0 36.6445 0 50C0 63.3555 5.20098 75.9117 14.6445 85.3555C24.0885 94.799 36.6445 100 50 100C63.3555 100 75.9117 94.799 85.3555 85.3555C94.7992 75.9119 100 63.3555 100 50C100 36.6445 94.799 24.0883 85.3555 14.6445ZM83.2838 83.2838C74.3936 92.1742 62.573 97.0703 50 97.0703C37.427 97.0703 25.6066 92.1742 16.7162 83.2838C7.82578 74.3934 2.92969 62.573 2.92969 50C2.92969 37.427 7.82578 25.6066 16.7162 16.7162C25.6066 7.82578 37.427 2.92969 50 2.92969C62.573 2.92969 74.3936 7.82578 83.2838 16.7162C92.174 25.6066 97.0703 37.427 97.0703 50C97.0703 62.573 92.1742 74.3936 83.2838 83.2838ZM89.4904 47.7791C88.6855 46.4539 87.6545 45.3195 86.4549 44.4104C85.1574 35.885 80.885 28.0617 74.3742 22.3234C67.6414 16.3891 58.9852 13.1211 50 13.1211C40.8211 13.1211 32.066 16.4988 25.2773 22.6408C22.4857 22.7486 19.8402 23.8086 17.7246 25.6881C15.1947 27.9348 13.8324 31.0123 13.6787 34.1516C10.2803 35.5012 7.66269 38.3055 6.57461 41.8383C4.69922 47.9258 7.88555 54.383 13.7242 56.6703C14.4412 60.599 15.785 64.351 17.7229 67.8439C16.7713 73.2664 18.3438 78.8938 22.434 82.9842C27.7525 88.3027 35.8309 89.4299 42.3459 86.0801C44.849 86.608 47.4205 86.8791 49.9998 86.8791C51.4291 86.8791 52.8688 86.7963 54.2787 86.6332C55.0822 86.5402 55.6584 85.8135 55.5654 85.0098C55.4725 84.2063 54.7455 83.6293 53.942 83.723C52.6436 83.8734 51.3172 83.9494 49.9998 83.9494C48.6014 83.9494 47.2062 83.8611 45.8246 83.6918C46.2852 83.251 46.5615 82.6432 46.5826 82.0043C46.6047 81.3322 46.3449 80.6738 45.8693 80.1984L25.2197 59.5486C24.7441 59.073 24.0848 58.8172 23.4135 58.8355C22.7389 58.858 22.0967 59.1623 21.6516 59.6705C20.5383 60.9418 19.6482 62.3381 18.9789 63.8092C18.0658 61.7645 17.3609 59.6379 16.8715 57.4465C17.3074 57.4938 17.743 57.5178 18.1762 57.5178C22.0049 57.5178 25.6559 55.6957 27.9541 52.5088L30.0582 53.0643L33.1182 62.4637C33.4145 63.3734 34.2229 64.0006 35.1777 64.0613C36.1227 64.1213 37.0146 63.6041 37.4232 62.7377L41.5754 53.9598C43.5111 53.6627 45.3746 53.1461 47.1469 52.4311C46.5014 54.9549 46.2492 57.5873 46.4137 60.1975L38.7268 66.1326C37.9711 66.7168 37.6525 67.6879 37.9154 68.6064C38.1783 69.5256 38.9631 70.1816 39.9174 70.2785L49.7539 71.2557L54.2625 80.0518C54.6646 80.8361 55.4572 81.3148 56.3244 81.3146C57.3553 81.3145 58.273 80.6338 58.5568 79.642L61.2672 70.3178C61.4994 70.243 61.7279 70.1611 61.9568 70.0803C62.5603 71.6734 63.4979 73.127 64.7176 74.3471C66.2369 75.8662 68.0635 76.8939 69.9988 77.4353C67.0525 79.5924 63.8035 81.2445 60.3014 82.3586C59.5305 82.6039 59.1043 83.4277 59.3494 84.1986C59.5973 84.9783 60.4355 85.3904 61.1895 85.1506C65.9895 83.6236 70.3516 81.1676 74.1658 77.8527C76.9656 77.6492 79.708 76.483 81.8441 74.3471C84.4561 71.7352 85.7145 68.1125 85.3191 64.4791C88.1354 62.8088 90.125 60.1211 90.9029 56.9404C91.6717 53.7975 91.1699 50.5441 89.4904 47.7791ZM43.4234 81.8953C41.4602 83.4924 39.1701 84.476 36.8035 84.8602L36.1994 74.6713L43.4234 81.8953ZM33.8787 85.0307C30.9215 84.898 28.0039 83.8467 25.5969 81.893L33.2395 74.2504L33.8787 85.0307ZM23.523 61.9949L30.7469 69.2188L20.5584 68.6145C20.9424 66.248 21.926 63.9582 23.523 61.9949ZM31.1678 72.1787L23.5252 79.8215C21.5717 77.4146 20.5203 74.4967 20.3875 71.5396L31.1678 72.1787ZM50 16.0508C58.2715 16.0508 66.2396 19.059 72.4373 24.5213C77.8627 29.3031 81.5994 35.6562 83.1453 42.6365C81.5352 42.075 79.8008 41.8539 78.1238 41.9979C77.7008 39.7268 76.9602 37.4959 75.8949 35.3738C75.452 34.492 74.5656 33.8879 73.5797 33.7969C69.626 33.4389 65.593 34.0535 61.9178 35.5367C63.0662 31.0812 62.9859 26.3154 61.55 21.774C61.2519 20.8316 60.4717 20.0945 59.5137 19.8502C50.6727 17.5951 41.2682 20.4465 35.0881 27.0187C33.5432 25.1527 31.5104 23.8145 29.2385 23.1395C35.1631 18.5488 42.425 16.0508 50 16.0508ZM75.2248 50.7191C72.2031 50.5865 68.8965 49.4238 65.9807 47.4377C63.3309 45.633 61.1975 43.2912 59.9055 40.7877C60.1371 40.34 60.3555 39.8869 60.5592 39.4273C64.399 37.284 68.8988 36.3184 73.2887 36.7123C75.4918 41.1139 76.1184 46.0418 75.2248 50.7191ZM19.6701 27.8781C23.6797 24.3176 29.9873 24.9627 33.176 29.325C30.5428 32.9191 28.9432 37.1129 28.5117 41.616L24.4514 43.8262C22.308 43.5186 20.3504 42.4676 18.9018 40.8379C15.5408 37.0529 15.8854 31.2393 19.6701 27.8781ZM15.4449 54.1742C10.6078 52.684 7.88477 47.5371 9.37461 42.7006C10.1078 40.3193 11.7572 38.3725 13.9248 37.2502C14.3432 39.2424 15.2658 41.1557 16.7117 42.7838C17.8686 44.0854 19.2719 45.1061 20.8264 45.7998C19.6475 46.2449 18.6275 47.2416 18.7889 48.5758C18.9037 49.5256 19.5756 50.2971 20.5008 50.5412L24.8443 51.6877C22.4893 54.2105 18.8684 55.2287 15.4449 54.1742ZM41.1147 51.0662C40.1621 51.2119 39.348 51.8178 38.9367 52.6871L35.4301 60.1002L32.7412 51.8414C32.4959 51.0885 31.8922 50.5184 31.1268 50.316L22.7293 48.0994L29.932 44.1785C30.7766 43.7186 31.3354 42.8713 31.4266 41.9121C31.8941 36.9965 33.9379 32.4967 37.3373 28.8992C38.7344 27.4205 40.31 26.1654 42.009 25.1467C42.4258 26.5147 43.0258 27.8773 43.8115 29.2174C44.2248 29.9223 45.1283 30.1434 45.8162 29.74C46.5141 29.3307 46.748 28.4334 46.3389 27.7354C45.5834 26.4471 45.0174 25.1023 44.6686 23.7891C49.0463 21.9154 53.9941 21.473 58.7648 22.6828C60.2434 27.3785 60.0816 32.3447 58.4578 36.8225C55.6965 36.2609 52.8744 34.7947 50.402 32.6182C49.7949 32.0838 48.8693 32.1424 48.3346 32.7496C47.8 33.3568 47.8588 34.2826 48.466 34.817C51.1373 37.1689 54.1969 38.808 57.2533 39.5533C56.3326 41.3068 55.1691 42.95 53.7725 44.4281C50.3834 48.0143 46.0219 50.3154 41.1147 51.0662ZM60.3557 67.5328C59.4391 67.8268 58.7309 68.5531 58.4605 69.4779L56.1717 77.3521L52.2084 69.6201C51.8469 68.9184 51.1619 68.4521 50.3732 68.3725L41.7311 67.5139L48.2223 62.5018C48.9846 61.9141 49.402 60.9881 49.3387 60.0275C49.1332 56.8113 49.6461 53.5543 50.8207 50.5758C52.6658 49.44 54.3723 48.0582 55.9014 46.4396C56.7357 45.5566 57.4926 44.6191 58.1783 43.641C59.6947 45.9906 61.8158 48.1453 64.3315 49.859C67.541 52.0449 71.0723 53.3416 74.4666 53.61C73.835 55.4867 72.9463 57.2934 71.801 58.9738C69.0143 63.065 65.0561 66.0246 60.3557 67.5328ZM79.7729 72.2746C76.1936 75.8543 70.3693 75.8543 66.7898 72.2746C65.8396 71.3246 65.1188 70.1871 64.6631 68.9418C67.3393 67.6275 69.7357 65.8547 71.7744 63.6773C74.765 65.9766 78.8264 66.7645 82.4596 65.716C82.4795 68.1527 81.5312 70.5162 79.7729 72.2746ZM88.0574 56.2443C87.4758 58.6262 86.0016 60.6389 83.9061 61.9117C80.7398 63.8348 76.593 63.6225 73.6527 61.4244C75.6008 58.7863 77.0029 55.7914 77.784 52.7C78.3844 50.3238 78.6484 47.3209 78.4914 44.908C81.8957 44.6512 85.1994 46.3576 86.9865 49.3C88.2596 51.3959 88.6398 53.8619 88.0574 56.2443ZM62.165 60.125L56.3316 55.6076C55.6922 55.1121 54.7719 55.2289 54.2768 55.8689C53.7814 56.5084 53.8982 57.4285 54.5381 57.9238L60.3715 62.4412C61.0061 62.9334 61.9281 62.8232 62.4264 62.1799C62.9217 61.5404 62.8049 60.6203 62.165 60.125ZM38.3965 39.1777C37.8246 38.6053 36.8971 38.6051 36.3248 39.1768C35.7525 39.7486 35.7521 40.6762 36.324 41.2482L41.5389 46.4676C42.1107 47.0398 43.0381 47.0402 43.6104 46.4686C44.1828 45.8967 44.1832 44.9691 43.6113 44.3971L38.3965 39.1777ZM54.7322 28.4756C55.541 28.4527 56.1779 27.7787 56.1549 26.9699C56.1318 26.1611 55.4578 25.5242 54.649 25.5473C53.8404 25.5701 53.2033 26.2441 53.2264 27.0529C53.2494 27.8617 53.9236 28.4986 54.7322 28.4756ZM69.6936 69.3719C69.1215 69.9441 69.1215 70.8715 69.6936 71.4434C70.2656 72.0156 71.1932 72.0156 71.7652 71.4434C72.3373 70.8713 72.3373 69.9439 71.7652 69.3719C71.1932 68.7998 70.2656 68.7998 69.6936 69.3719ZM42.4285 35.1492C41.8566 34.5768 40.9293 34.5766 40.357 35.1482C39.7848 35.7201 39.7842 36.6477 40.3561 37.2197L45.5707 42.4393C46.1426 43.0115 47.0699 43.0121 47.6422 42.4402C48.2145 41.8684 48.215 40.9408 47.6432 40.3688L42.4285 35.1492ZM15.6852 48.4195C14.9119 48.1813 14.0922 48.615 13.8541 49.3883C13.616 50.1615 14.0498 50.9813 14.8229 51.2193C15.5961 51.4576 16.4158 51.0236 16.6539 50.2506C16.892 49.4773 16.4582 48.6576 15.6852 48.4195ZM65.6547 55.6188L59.8213 51.1014C59.1818 50.6057 58.2615 50.7229 57.7664 51.3627C57.2711 52.0021 57.3879 52.9223 58.0277 53.4176L63.8611 57.935C64.4957 58.4272 65.4178 58.317 65.916 57.6736C66.4113 57.0342 66.2945 56.1141 65.6547 55.6188Z" fill="#262626"/>
</svg>
