<svg width="100" height="100" viewBox="0 0 100 100" fill="none" xmlns="http://www.w3.org/2000/svg">
<path d="M92.1874 25H89.9073C89.8253 25 89.7436 25.004 89.662 25.0082C83.089 14.6192 72.7144 7.21195 60.754 4.3686C59.8888 3.57156 58.7563 3.12784 57.58 3.12504H54.9198C54.5258 3.12551 54.1335 3.17604 53.7522 3.27543C52.5098 3.177 51.2499 3.12504 49.9999 3.12504C44.4022 3.11736 38.8488 4.11674 33.605 6.07543L29.6421 3.76372C28.925 3.34569 28.11 3.12531 27.28 3.12504H24.9999C23.7571 3.12644 22.5656 3.62075 21.6869 4.49952C20.8081 5.3783 20.3138 6.56977 20.3124 7.81254V13.7284C14.928 18.1135 10.5908 23.6455 7.61726 29.9208C4.64372 36.196 3.10892 43.056 3.12488 50C3.12618 51.8101 3.23084 53.6187 3.43836 55.4168C3.23211 55.9523 3.12586 56.5211 3.12488 57.095V59.375C3.12495 60.0997 3.2932 60.8144 3.6164 61.4629C3.93959 62.1115 4.40889 62.6762 4.98738 63.1125C6.45152 68.1589 8.76089 72.9204 11.8173 77.1946C11.2473 77.9892 10.9397 78.9419 10.9374 79.9198V82.5803C10.939 83.3993 11.1544 84.2036 11.5622 84.9137C11.9701 85.6238 12.5564 86.2151 13.263 86.6291L29.7327 96.2364C30.4497 96.6544 31.2648 96.8748 32.0948 96.875H34.3749C35.0385 96.8752 35.6945 96.734 36.2994 96.4611C36.9043 96.1881 37.4441 95.7895 37.8831 95.2918C45.1538 97.2294 52.7838 97.391 60.13 95.7631C67.4763 94.1351 74.3237 90.7653 80.0952 85.9375H92.1874C93.4302 85.9361 94.6216 85.4418 95.5004 84.5631C96.3792 83.6843 96.8735 82.4928 96.8749 81.25V78.97C96.8746 78.14 96.6543 77.3249 96.2362 76.6079L92.3925 70.0184C95.0293 64.4649 96.5332 58.4416 96.8163 52.3004C96.8552 52.0564 96.8748 51.8097 96.8749 51.5625V29.6875C96.8735 28.4448 96.3792 27.2533 95.5004 26.3745C94.6216 25.4957 93.4302 25.0014 92.1874 25ZM86.6762 26.1456L81.2694 29.2998C78.0331 24.4237 73.706 20.368 68.6307 17.4539L63.2987 8.31332C72.9046 11.4026 81.1576 17.698 86.6762 26.1456ZM71.7934 23.4215C74.4021 25.5632 76.6832 28.0752 78.5643 30.8776L71.0757 35.2459C70.4427 35.6173 69.9054 36.1315 69.5068 36.7476C69.1081 37.3637 68.859 38.0645 68.7796 38.794C66.9263 35.7019 64.343 33.1116 61.2559 31.25H67.1874C68.4302 31.2486 69.6216 30.7543 70.5004 29.8756C71.3792 28.9968 71.8735 27.8053 71.8749 26.5625V24.2825C71.8744 23.9936 71.847 23.7054 71.7932 23.4215H71.7934ZM54.9198 6.25004H57.58C57.853 6.25056 58.1211 6.32237 58.3578 6.45837C58.5945 6.59438 58.7916 6.78985 58.9296 7.02543L68.537 23.4961C68.6763 23.7351 68.7498 24.0068 68.7499 24.2834V26.5625C68.7494 26.9768 68.5846 27.374 68.2917 27.6669C67.9988 27.9598 67.6016 28.1246 67.1874 28.125H45.3124C44.8981 28.1246 44.501 27.9598 44.208 27.6669C43.9151 27.374 43.7503 26.9768 43.7499 26.5625V25.5079L46.112 24.1299C46.8186 23.7158 47.4049 23.1243 47.8127 22.414C48.2206 21.7037 48.4359 20.8992 48.4374 20.0801V17.4198C48.4367 16.9857 48.3754 16.5539 48.2551 16.1368L53.5702 7.02524C53.7082 6.7897 53.9053 6.59428 54.142 6.45831C54.3787 6.32235 54.6468 6.25056 54.9198 6.25004ZM49.9999 6.25004C50.1337 6.25004 50.268 6.25317 50.402 6.25434L46.2134 13.4348C46.1794 13.4137 46.1466 13.3913 46.1118 13.3709L37.1786 8.16C41.3335 6.88883 45.6549 6.24508 49.9999 6.25004ZM23.4374 7.81254C23.4378 7.39829 23.6026 7.00113 23.8955 6.7082C24.1885 6.41528 24.5856 6.25051 24.9999 6.25004H27.28C27.5567 6.25015 27.8284 6.32361 28.0675 6.46293L44.5372 16.0702C44.7727 16.2082 44.9681 16.4053 45.1041 16.642C45.24 16.8787 45.3118 17.1468 45.3124 17.4198V20.0801C45.3118 20.3531 45.24 20.6212 45.1041 20.858C44.9681 21.0947 44.7727 21.2919 44.5372 21.4299L28.0673 31.0372C27.8283 31.1765 27.5566 31.25 27.28 31.25H24.9999C24.5856 31.2496 24.1885 31.0848 23.8955 30.7919C23.6026 30.499 23.4378 30.1018 23.4374 29.6875V7.81254ZM20.3124 17.8663V29.6875C20.3138 30.9303 20.8081 32.1218 21.6869 33.0006C22.5656 33.8793 23.7571 34.3736 24.9999 34.375H27.28C28.1099 34.3748 28.9249 34.1544 29.6419 33.7364L40.6835 27.2961C40.8258 28.1947 41.2273 29.0321 41.8387 29.7057C38.4575 31.0729 35.4702 33.261 33.1467 36.0722C30.8232 38.8835 29.2367 42.2293 28.5305 45.8075L24.1298 38.2633C23.7157 37.5565 23.1243 36.9702 22.414 36.5622C21.7036 36.1543 20.8991 35.939 20.08 35.9375H17.4198C16.6008 35.9391 15.7965 36.1545 15.0863 36.5624C14.3761 36.9702 13.7848 37.5565 13.3708 38.2631L6.25691 50.4586C6.25515 50.3057 6.24988 50.1528 6.24988 50C6.23528 43.9612 7.47807 37.9854 9.89914 32.4531C12.3202 26.9208 15.8665 21.9531 20.3124 17.8663ZM6.24988 59.375V57.095C6.24996 56.8183 6.32342 56.5466 6.46277 56.3077L16.0702 39.8377C16.2082 39.6022 16.4053 39.4068 16.642 39.2708C16.8787 39.1348 17.1468 39.0631 17.4198 39.0625H20.08C20.353 39.0631 20.6211 39.1349 20.8578 39.2709C21.0945 39.4069 21.2916 39.6023 21.4296 39.8379L28.1706 51.3938C28.3696 54.5762 29.267 57.6757 30.7989 60.4721C30.6537 60.6195 30.4807 60.7365 30.2899 60.8164C30.0991 60.8963 29.8943 60.9375 29.6874 60.9375H7.81238C7.39812 60.9371 7.00096 60.7723 6.70804 60.4794C6.41511 60.1865 6.25034 59.7893 6.24988 59.375ZM32.5059 63.1186C33.1796 64.0139 33.9204 64.8565 34.7219 65.6393C34.6073 65.6309 34.4921 65.625 34.3749 65.625H32.0948C31.2649 65.6253 30.4498 65.8457 29.7329 66.2637L22.4245 70.5274C20.925 68.5181 19.6508 66.3501 18.6247 64.0625H29.6874C30.7045 64.0625 31.6939 63.7311 32.5059 63.1186ZM8.56062 64.0625H15.228C16.3841 66.9196 17.8897 69.6225 19.7102 72.1094L14.287 75.2735C11.843 71.835 9.91386 68.0582 8.56062 64.0625ZM35.9374 92.1875C35.9369 92.6018 35.7721 92.999 35.4792 93.2919C35.1863 93.5848 34.7891 93.7496 34.3749 93.75H32.0948C31.8181 93.7499 31.5464 93.6765 31.3073 93.5372L14.8376 83.9299C14.602 83.7919 14.4066 83.5948 14.2707 83.3581C14.1347 83.1214 14.0629 82.8533 14.0624 82.5803V79.9198C14.0629 79.6468 14.1347 79.3787 14.2707 79.142C14.4066 78.9053 14.602 78.7082 14.8376 78.5702L31.3075 68.9629C31.5465 68.8236 31.8182 68.7501 32.0948 68.75H34.3749C34.7891 68.7505 35.1863 68.9153 35.4792 69.2082C35.7721 69.5011 35.9369 69.8983 35.9374 70.3125V92.1875ZM31.2499 50C31.2499 46.2916 32.3495 42.6665 34.4098 39.5831C36.4701 36.4997 39.3984 34.0964 42.8246 32.6773C46.2507 31.2582 50.0207 30.8868 53.6578 31.6103C57.295 32.3338 60.6359 34.1196 63.2581 36.7418C65.8804 39.364 67.6661 42.705 68.3896 46.3421C69.1131 49.9792 68.7418 53.7492 67.3226 57.1754C65.9035 60.6015 63.5002 63.5298 60.4168 65.5901C57.3334 67.6504 53.7083 68.75 49.9999 68.75C45.0288 68.7445 40.2629 66.7672 36.7478 63.2521C33.2327 59.737 31.2555 54.9711 31.2499 50ZM69.5372 72.3202C69.7727 72.4582 69.9681 72.6553 70.1041 72.892C70.2401 73.1287 70.3118 73.3968 70.3124 73.6698V76.3301C70.3118 76.6031 70.24 76.8712 70.1041 77.108C69.9681 77.3447 69.7727 77.5419 69.5372 77.6799L53.0673 87.2872C52.8283 87.4265 52.5566 87.5 52.28 87.5H49.9999C49.5856 87.4996 49.1885 87.3348 48.8955 87.0419C48.6026 86.749 48.4378 86.3518 48.4374 85.9375V71.8186C48.9536 71.8553 49.4745 71.875 49.9999 71.875C54.3828 71.88 58.6649 70.5607 62.285 68.0901L69.5372 72.3202ZM45.3124 71.3672V84.053C43.188 83.7646 41.0955 83.2773 39.0624 82.5973V70.3125C39.0625 69.7932 38.9758 69.2775 38.8061 68.7868C40.8213 69.9927 43.0185 70.8641 45.3124 71.3672ZM49.9999 93.75C46.309 93.752 42.6325 93.2883 39.0577 92.37C39.06 92.3094 39.0624 92.2487 39.0624 92.1875V85.8756C41.1626 86.5151 43.3152 86.9683 45.495 87.2299C45.7767 88.2075 46.3682 89.0672 47.1807 89.6795C47.9932 90.2918 48.9825 90.6236 49.9999 90.625H52.28C53.1099 90.6248 53.9249 90.4044 54.6419 89.9864L66.0995 83.303C66.4847 84.0924 67.0838 84.7579 67.8286 85.2236C68.5734 85.6894 69.434 85.9367 70.3124 85.9375H74.953C67.6267 91.0255 58.9197 93.7516 49.9999 93.75ZM93.537 78.1836C93.6763 78.4226 93.7498 78.6943 93.7499 78.9709V81.25C93.7494 81.6643 93.5846 82.0615 93.2917 82.3544C92.9988 82.6473 92.6016 82.8121 92.1874 82.8125H70.3124C69.9794 82.8121 69.6553 82.7055 69.387 82.5083C69.1188 82.311 68.9204 82.0334 68.8208 81.7157L71.112 80.3791C71.8185 79.965 72.4047 79.3737 72.8125 78.6635C73.2204 77.9534 73.4358 77.1491 73.4374 76.3301V73.6698C73.436 72.9004 73.2449 72.1432 72.8811 71.4653L78.5702 61.7127C78.7082 61.4772 78.9053 61.2818 79.142 61.1458C79.3787 61.0098 79.6468 60.9381 79.9198 60.9375H82.58C82.853 60.9381 83.1211 61.0099 83.3578 61.1459C83.5945 61.2819 83.7916 61.4773 83.9296 61.7129L93.537 78.1836ZM90.451 66.6918L86.6286 60.1393C86.2148 59.4325 85.6236 58.846 84.9135 58.4379C84.2034 58.0298 83.399 57.8143 82.58 57.8125H79.9198C79.1008 57.8141 78.2965 58.0295 77.5863 58.4374C76.8761 58.8452 76.2848 59.4315 75.8708 60.1381L70.5352 69.2846L64.9022 65.9983C67.5629 63.5248 69.565 60.4269 70.7272 56.985C71.8895 53.5431 72.1752 49.8657 71.5587 46.2856L87.546 55.6114C88.2628 56.0293 89.0776 56.2496 89.9073 56.25H92.1874C92.5725 56.2501 92.9561 56.2026 93.3296 56.1086C92.8254 59.7444 91.8582 63.3006 90.4514 66.6909L90.451 66.6918ZM93.7499 50C93.7499 50.6463 93.7317 51.2891 93.7044 51.9301C93.6218 52.2704 93.4274 52.573 93.1523 52.7897C92.8773 53.0063 92.5375 53.1244 92.1874 53.125H89.9073C89.6306 53.1249 89.3589 53.0515 89.1198 52.9122L72.6501 43.3049C72.4146 43.1669 72.2191 42.9698 72.0832 42.7331C71.9472 42.4964 71.8754 42.2283 71.8749 41.9553V39.2948C71.8754 39.0218 71.9472 38.7537 72.0832 38.517C72.2191 38.2803 72.4146 38.0832 72.6501 37.9452L89.121 28.3379C89.36 28.1986 89.6316 28.1251 89.9083 28.125H92.1874C92.6016 28.1255 92.9988 28.2903 93.2917 28.5832C93.5846 28.8761 93.7494 29.2733 93.7499 29.6875V50Z" fill="black"/>
<path d="M65.6249 50C65.6249 46.9097 64.7085 43.8887 62.9917 41.3192C61.2748 38.7497 58.8345 36.747 55.9794 35.5644C53.1243 34.3818 49.9826 34.0723 46.9517 34.6752C43.9207 35.2781 41.1366 36.7663 38.9514 38.9515C36.7662 41.1367 35.2781 43.9208 34.6752 46.9517C34.0723 49.9827 34.3817 53.1243 35.5643 55.9794C36.7469 58.8345 38.7496 61.2748 41.3192 62.9917C43.8887 64.7086 46.9096 65.625 49.9999 65.625C54.1425 65.6203 58.114 63.9726 61.0433 61.0433C63.9725 58.1141 65.6202 54.1426 65.6249 50ZM37.4999 50C37.4999 47.5277 38.2331 45.111 39.6066 43.0554C40.9801 40.9998 42.9323 39.3976 45.2164 38.4515C47.5005 37.5054 50.0138 37.2579 52.4386 37.7402C54.8633 38.2225 57.0906 39.413 58.8388 41.1612C60.5869 42.9093 61.7774 45.1366 62.2598 47.5614C62.7421 49.9861 62.4945 52.4995 61.5484 54.7835C60.6023 57.0676 59.0002 59.0199 56.9446 60.3934C54.889 61.7669 52.4722 62.5 49.9999 62.5C46.6859 62.4963 43.5086 61.1781 41.1652 58.8347C38.8218 56.4913 37.5037 53.3141 37.4999 50Z" fill="black"/>
<path d="M51.5625 43.75C52.8053 43.7514 53.9967 44.2457 54.8755 45.1245C55.7543 46.0033 56.2486 47.1947 56.25 48.4375C56.25 48.8519 56.4146 49.2493 56.7076 49.5424C57.0007 49.8354 57.3981 50 57.8125 50C58.2269 50 58.6243 49.8354 58.9174 49.5424C59.2104 49.2493 59.375 48.8519 59.375 48.4375C59.3727 46.3662 58.5488 44.3804 57.0842 42.9158C55.6196 41.4512 53.6338 40.6273 51.5625 40.625C51.1481 40.625 50.7507 40.7896 50.4576 41.0826C50.1646 41.3757 50 41.7731 50 42.1875C50 42.6019 50.1646 42.9993 50.4576 43.2924C50.7507 43.5854 51.1481 43.75 51.5625 43.75Z" fill="black"/>
<path d="M48.4375 56.25C47.1947 56.2486 46.0033 55.7543 45.1245 54.8755C44.2457 53.9967 43.7514 52.8053 43.75 51.5625C43.75 51.1481 43.5854 50.7507 43.2924 50.4576C42.9993 50.1646 42.6019 50 42.1875 50C41.7731 50 41.3757 50.1646 41.0826 50.4576C40.7896 50.7507 40.625 51.1481 40.625 51.5625C40.6273 53.6338 41.4512 55.6196 42.9158 57.0842C44.3804 58.5488 46.3662 59.3727 48.4375 59.375C48.8519 59.375 49.2493 59.2104 49.5424 58.9174C49.8354 58.6243 50 58.2269 50 57.8125C50 57.3981 49.8354 57.0007 49.5424 56.7076C49.2493 56.4146 48.8519 56.25 48.4375 56.25Z" fill="black"/>
<path d="M64.0625 25C64.9254 25 65.625 24.3004 65.625 23.4375C65.625 22.5746 64.9254 21.875 64.0625 21.875C63.1996 21.875 62.5 22.5746 62.5 23.4375C62.5 24.3004 63.1996 25 64.0625 25Z" fill="black"/>
<path d="M57.8125 25C58.6754 25 59.375 24.3004 59.375 23.4375C59.375 22.5746 58.6754 21.875 57.8125 21.875C56.9496 21.875 56.25 22.5746 56.25 23.4375C56.25 24.3004 56.9496 25 57.8125 25Z" fill="black"/>
<path d="M17.1875 57.8125C18.0504 57.8125 18.75 57.1129 18.75 56.25C18.75 55.3871 18.0504 54.6875 17.1875 54.6875C16.3246 54.6875 15.625 55.3871 15.625 56.25C15.625 57.1129 16.3246 57.8125 17.1875 57.8125Z" fill="black"/>
<path d="M10.9375 57.8125C11.8004 57.8125 12.5 57.1129 12.5 56.25C12.5 55.3871 11.8004 54.6875 10.9375 54.6875C10.0746 54.6875 9.375 55.3871 9.375 56.25C9.375 57.1129 10.0746 57.8125 10.9375 57.8125Z" fill="black"/>
<path d="M89.0625 50C89.9254 50 90.625 49.3004 90.625 48.4375C90.625 47.5746 89.9254 46.875 89.0625 46.875C88.1996 46.875 87.5 47.5746 87.5 48.4375C87.5 49.3004 88.1996 50 89.0625 50Z" fill="black"/>
<path d="M89.0625 43.75C89.9254 43.75 90.625 43.0504 90.625 42.1875C90.625 41.3246 89.9254 40.625 89.0625 40.625C88.1996 40.625 87.5 41.3246 87.5 42.1875C87.5 43.0504 88.1996 43.75 89.0625 43.75Z" fill="black"/>
<path d="M30.1451 86.3951C29.9266 86.6136 29.7778 86.892 29.7175 87.1951C29.6572 87.4982 29.6882 87.8123 29.8064 88.0978C29.9247 88.3833 30.125 88.6274 30.3819 88.7991C30.6389 88.9707 30.941 89.0624 31.25 89.0624C31.559 89.0624 31.8611 88.9707 32.1181 88.7991C32.375 88.6274 32.5753 88.3833 32.6936 88.0978C32.8118 87.8123 32.8428 87.4982 32.7825 87.1951C32.7222 86.892 32.5734 86.6136 32.3549 86.3951C32.2098 86.25 32.0375 86.1349 31.848 86.0563C31.6584 85.9778 31.4552 85.9374 31.25 85.9374C31.0448 85.9374 30.8416 85.9778 30.652 86.0563C30.4625 86.1349 30.2902 86.25 30.1451 86.3951Z" fill="black"/>
<path d="M31.25 82.8125C32.1129 82.8125 32.8125 82.1129 32.8125 81.25C32.8125 80.3871 32.1129 79.6875 31.25 79.6875C30.3871 79.6875 29.6875 80.3871 29.6875 81.25C29.6875 82.1129 30.3871 82.8125 31.25 82.8125Z" fill="black"/>
<path d="M76.5625 79.6875C77.4254 79.6875 78.125 78.9879 78.125 78.125C78.125 77.2621 77.4254 76.5625 76.5625 76.5625C75.6996 76.5625 75 77.2621 75 78.125C75 78.9879 75.6996 79.6875 76.5625 79.6875Z" fill="black"/>
<path d="M82.8125 79.6875C83.6754 79.6875 84.375 78.9879 84.375 78.125C84.375 77.2621 83.6754 76.5625 82.8125 76.5625C81.9496 76.5625 81.25 77.2621 81.25 78.125C81.25 78.9879 81.9496 79.6875 82.8125 79.6875Z" fill="black"/>
</svg>
