<svg aria-hidden="true" style="position: absolute; width: 0; height: 0; overflow: hidden;" version="1.1" xmlns="http://www.w3.org/2000/svg" xmlns:xlink="http://www.w3.org/1999/xlink">
<defs>
<symbol id="twitter" viewBox="0 0 32 32">
<path d="M30 7.697c-1.031 0.437-2.136 0.734-3.298 0.866 1.186-0.68 2.094-1.759 2.525-3.041-1.113 0.63-2.341 1.087-3.65 1.335-1.048-1.071-2.539-1.737-4.192-1.737-3.172 0-5.744 2.463-5.744 5.498 0 0.431 0.051 0.851 0.149 1.253-4.773-0.23-9.005-2.419-11.838-5.746-0.495 0.811-0.777 1.756-0.777 2.764 0 1.908 1.015 3.592 2.555 4.577-0.941-0.030-1.827-0.278-2.602-0.69v0.069c0 2.664 1.981 4.887 4.607 5.393-0.481 0.124-0.989 0.193-1.513 0.193-0.371 0-0.73-0.035-1.081-0.102 0.731 2.186 2.852 3.776 5.365 3.82-1.965 1.474-4.442 2.351-7.133 2.351-0.464 0-0.92-0.027-1.37-0.075 2.542 1.563 5.56 2.474 8.804 2.474 10.566 0 16.342-8.38 16.342-15.648l-0.019-0.712c1.129-0.771 2.105-1.739 2.873-2.841z"></path>
</symbol>
<symbol id="facebook" viewBox="0 0 32 32">
<path d="M23.417 1.339l-3.703-0.006c-4.16 0-6.849 2.833-6.849 7.219v3.328h-3.723c-0.322 0-0.582 0.268-0.582 0.598v4.823c0 0.33 0.261 0.598 0.582 0.598h3.723v12.169c0 0.331 0.261 0.598 0.582 0.598h4.858c0.322 0 0.582-0.268 0.582-0.598v-12.169h4.353c0.322 0 0.582-0.268 0.582-0.598l0.002-4.823c0-0.159-0.061-0.311-0.171-0.423s-0.257-0.175-0.412-0.175h-4.355v-2.822c0-1.356 0.315-2.045 2.034-2.045l2.495-0.001c0.321 0 0.582-0.268 0.582-0.598v-4.478c0-0.33-0.26-0.598-0.581-0.598z"></path>
</symbol>
<symbol id="google" viewBox="0 0 32 32">
<path d="M16.281 14.004h13.167c0.145 0.811 0.218 1.586 0.218 2.325 0 2.627-0.551 4.973-1.653 7.038s-2.673 3.678-4.713 4.84c-2.040 1.162-4.38 1.744-7.019 1.744-1.901 0-3.711-0.366-5.43-1.099s-3.203-1.722-4.45-2.969c-1.247-1.247-2.237-2.73-2.969-4.45s-1.099-3.529-1.099-5.43c0-1.901 0.366-3.711 1.099-5.43s1.722-3.203 2.969-4.45c1.247-1.247 2.73-2.237 4.45-2.969s3.529-1.099 5.43-1.099c3.632 0 6.75 1.217 9.353 3.651l-3.796 3.651c-1.489-1.441-3.342-2.161-5.557-2.161-1.562 0-3.006 0.394-4.332 1.181s-2.376 1.856-3.151 3.206c-0.775 1.35-1.162 2.824-1.162 4.422s0.387 3.072 1.162 4.422 1.825 2.419 3.151 3.206c1.326 0.787 2.77 1.18 4.332 1.18 1.053 0 2.022-0.145 2.906-0.436s1.61-0.654 2.179-1.090 1.065-0.932 1.489-1.489c0.424-0.557 0.736-1.084 0.935-1.58s0.336-0.969 0.409-1.417h-7.919v-4.795z"></path>
</symbol>
<symbol id="instagram" viewBox="0 0 32 32">
<path d="M2.667 16c0-5.588 0-8.383 1.401-10.31 0.452-0.623 1-1.17 1.622-1.622 1.928-1.401 4.722-1.401 10.31-1.401s8.383 0 10.31 1.401c0.623 0.452 1.17 1 1.622 1.622 1.401 1.928 1.401 4.722 1.401 10.31s0 8.383-1.401 10.31c-0.452 0.623-1 1.17-1.622 1.622-1.928 1.401-4.722 1.401-10.31 1.401s-8.383 0-10.31-1.401c-0.623-0.452-1.17-1-1.622-1.622-1.401-1.928-1.401-4.722-1.401-10.31zM16 8.941c-3.898 0-7.059 3.161-7.059 7.059s3.161 7.059 7.059 7.059c3.898 0 7.059-3.161 7.059-7.059s-3.161-7.059-7.059-7.059zM16 20.412c-2.432 0-4.412-1.98-4.412-4.412 0-2.433 1.98-4.412 4.412-4.412s4.412 1.978 4.412 4.412c0 2.432-1.98 4.412-4.412 4.412zM24.529 8.412c0 0.519-0.421 0.941-0.941 0.941s-0.941-0.421-0.941-0.941c0-0.519 0.421-0.941 0.941-0.941s0.941 0.421 0.941 0.941z"></path>
</symbol>
</defs>
</svg>
